<mxfile host="app.diagrams.net" agent="Mozilla/5.0 (Macintosh; Intel Mac OS X 10_15_7) AppleWebKit/537.36 (KHTML, like Gecko) Chrome/134.0.0.0 Safari/537.36" version="26.1.1">
  <diagram name="Page-1" id="CDsjLTWLwzHJAGwnAPml">
    <mxGraphModel dx="2704" dy="1076" grid="1" gridSize="10" guides="1" tooltips="1" connect="1" arrows="1" fold="1" page="1" pageScale="1" pageWidth="827" pageHeight="1169" math="0" shadow="0">
      <root>
        <mxCell id="0" />
        <mxCell id="1" parent="0" />
        <mxCell id="L-U1fICnltMbJxQBlIye-55" value="" style="rounded=0;whiteSpace=wrap;html=1;fillColor=#eeeeee;strokeColor=none;" parent="1" vertex="1">
          <mxGeometry x="-120" y="80" width="2440" height="1280" as="geometry" />
        </mxCell>
        <mxCell id="L-U1fICnltMbJxQBlIye-2" value="" style="rounded=0;whiteSpace=wrap;html=1;fillColor=#f5f5f5;fontColor=#333333;strokeColor=#CCCCCC;" parent="1" vertex="1">
          <mxGeometry x="-40" y="160" width="600" height="1120" as="geometry" />
        </mxCell>
        <mxCell id="L-U1fICnltMbJxQBlIye-3" value="" style="rounded=0;whiteSpace=wrap;html=1;fillColor=#f5f5f5;fontColor=#333333;strokeColor=#CCCCCC;" parent="1" vertex="1">
          <mxGeometry x="800" y="160" width="600" height="1120" as="geometry" />
        </mxCell>
        <mxCell id="L-U1fICnltMbJxQBlIye-4" value="" style="rounded=0;whiteSpace=wrap;html=1;fillColor=#f5f5f5;fontColor=#333333;strokeColor=#CCCCCC;" parent="1" vertex="1">
          <mxGeometry x="1640" y="160" width="600" height="1120" as="geometry" />
        </mxCell>
        <mxCell id="L-U1fICnltMbJxQBlIye-5" value="&lt;h1&gt;&lt;b&gt;Platform Systems&lt;/b&gt;&lt;/h1&gt;" style="text;html=1;align=center;verticalAlign=middle;whiteSpace=wrap;rounded=0;fontColor=#4D4D4D;" parent="1" vertex="1">
          <mxGeometry x="125" y="170" width="270" height="30" as="geometry" />
        </mxCell>
        <mxCell id="L-U1fICnltMbJxQBlIye-6" value="&lt;h1&gt;&lt;b&gt;Program Systems&lt;/b&gt;&lt;/h1&gt;" style="text;html=1;align=center;verticalAlign=middle;whiteSpace=wrap;rounded=0;fontColor=#4D4D4D;" parent="1" vertex="1">
          <mxGeometry x="966" y="170" width="270" height="30" as="geometry" />
        </mxCell>
        <mxCell id="L-U1fICnltMbJxQBlIye-7" value="&lt;h1&gt;&lt;b&gt;GM Systems&lt;/b&gt;&lt;/h1&gt;" style="text;html=1;align=center;verticalAlign=middle;whiteSpace=wrap;rounded=0;fontColor=#4D4D4D;" parent="1" vertex="1">
          <mxGeometry x="1805" y="170" width="270" height="30" as="geometry" />
        </mxCell>
        <mxCell id="L-U1fICnltMbJxQBlIye-8" value="" style="rounded=0;whiteSpace=wrap;html=1;fillColor=#DAE7D9;strokeColor=#82b366;fillStyle=auto;" parent="1" vertex="1">
          <mxGeometry y="240" width="520" height="400" as="geometry" />
        </mxCell>
        <mxCell id="L-U1fICnltMbJxQBlIye-9" value="&lt;h2&gt;&lt;b&gt;Platform Applications&lt;/b&gt;&lt;/h2&gt;" style="text;html=1;align=center;verticalAlign=middle;whiteSpace=wrap;rounded=0;fontColor=#4D4D4D;" parent="1" vertex="1">
          <mxGeometry x="125" y="250" width="270" height="30" as="geometry" />
        </mxCell>
        <mxCell id="L-U1fICnltMbJxQBlIye-54" style="edgeStyle=orthogonalEdgeStyle;rounded=0;orthogonalLoop=1;jettySize=auto;html=1;entryX=0.25;entryY=0;entryDx=0;entryDy=0;exitX=0.25;exitY=1;exitDx=0;exitDy=0;startArrow=classic;startFill=1;" parent="1" source="L-U1fICnltMbJxQBlIye-11" target="L-U1fICnltMbJxQBlIye-12" edge="1">
          <mxGeometry relative="1" as="geometry" />
        </mxCell>
        <mxCell id="L-U1fICnltMbJxQBlIye-11" value="&lt;font style=&quot;line-height: 170%;&quot;&gt;&lt;font style=&quot;font-size: 18px; line-height: 170%;&quot;&gt;Platform FE Services&lt;/font&gt;&lt;br&gt;&lt;span&gt;&lt;font style=&quot;font-size: 16px; line-height: 170%;&quot;&gt;(Dealer Portal, OEM Portal &amp;amp; Secure Checkout)&lt;/font&gt;&lt;/span&gt;&lt;/font&gt;" style="rounded=0;whiteSpace=wrap;html=1;fillColor=#BBEAB8;strokeColor=#82b366;" parent="1" vertex="1">
          <mxGeometry x="40" y="320" width="440" height="120" as="geometry" />
        </mxCell>
        <mxCell id="L-U1fICnltMbJxQBlIye-12" value="&lt;font style=&quot;line-height: 160%;&quot;&gt;&lt;font style=&quot;font-size: 18px; line-height: 160%;&quot;&gt;Platform BE Services&lt;/font&gt;&lt;br&gt;&lt;/font&gt;" style="rounded=0;whiteSpace=wrap;html=1;fillColor=#BBEAB8;strokeColor=#82b366;" parent="1" vertex="1">
          <mxGeometry x="40" y="520" width="440" height="80" as="geometry" />
        </mxCell>
        <mxCell id="L-U1fICnltMbJxQBlIye-13" value="" style="rounded=0;whiteSpace=wrap;html=1;fillColor=#DAE7D9;strokeColor=#82b366;fillStyle=auto;" parent="1" vertex="1">
          <mxGeometry y="720" width="520" height="520" as="geometry" />
        </mxCell>
        <mxCell id="L-U1fICnltMbJxQBlIye-14" value="&lt;h2&gt;&lt;b&gt;Platform Integration&lt;/b&gt;&lt;/h2&gt;" style="text;html=1;align=center;verticalAlign=middle;whiteSpace=wrap;rounded=0;fontColor=#4D4D4D;" parent="1" vertex="1">
          <mxGeometry x="125" y="730" width="270" height="30" as="geometry" />
        </mxCell>
        <mxCell id="L-U1fICnltMbJxQBlIye-15" value="&lt;font style=&quot;line-height: 160%;&quot;&gt;&lt;font style=&quot;font-size: 18px; line-height: 160%;&quot;&gt;Platform Integration Service&lt;/font&gt;&lt;br&gt;&lt;/font&gt;" style="rounded=0;whiteSpace=wrap;html=1;fillColor=#BBEAB8;strokeColor=#82b366;" parent="1" vertex="1">
          <mxGeometry x="40" y="800" width="440" height="80" as="geometry" />
        </mxCell>
        <mxCell id="L-U1fICnltMbJxQBlIye-62" style="edgeStyle=orthogonalEdgeStyle;rounded=0;orthogonalLoop=1;jettySize=auto;html=1;entryX=0.151;entryY=0.988;entryDx=0;entryDy=0;entryPerimeter=0;exitX=0.151;exitY=0.004;exitDx=0;exitDy=0;exitPerimeter=0;" parent="1" source="L-U1fICnltMbJxQBlIye-16" target="L-U1fICnltMbJxQBlIye-15" edge="1">
          <mxGeometry relative="1" as="geometry" />
        </mxCell>
        <mxCell id="L-U1fICnltMbJxQBlIye-16" value="&lt;font style=&quot;line-height: 160%;&quot;&gt;&lt;font style=&quot;font-size: 18px; line-height: 160%;&quot;&gt;Platform Authorization Service&lt;/font&gt;&lt;br&gt;&lt;/font&gt;" style="rounded=0;whiteSpace=wrap;html=1;fillColor=#BBEAB8;strokeColor=#82b366;" parent="1" vertex="1">
          <mxGeometry x="40" y="960" width="440" height="80" as="geometry" />
        </mxCell>
        <mxCell id="L-U1fICnltMbJxQBlIye-18" value="" style="rounded=0;whiteSpace=wrap;html=1;fillColor=light-dark(#e2edfd, #1d293b);strokeColor=#6c8ebf;fillStyle=auto;" parent="1" vertex="1">
          <mxGeometry x="841" y="240" width="520" height="400" as="geometry" />
        </mxCell>
        <mxCell id="L-U1fICnltMbJxQBlIye-19" value="&lt;h2&gt;&lt;b&gt;Program Applications&lt;/b&gt;&lt;/h2&gt;" style="text;html=1;align=center;verticalAlign=middle;whiteSpace=wrap;rounded=0;fontColor=#4D4D4D;" parent="1" vertex="1">
          <mxGeometry x="966" y="250" width="270" height="30" as="geometry" />
        </mxCell>
        <mxCell id="L-U1fICnltMbJxQBlIye-60" style="edgeStyle=orthogonalEdgeStyle;rounded=0;orthogonalLoop=1;jettySize=auto;html=1;entryX=0.773;entryY=-0.004;entryDx=0;entryDy=0;exitX=0.772;exitY=0.986;exitDx=0;exitDy=0;exitPerimeter=0;entryPerimeter=0;" parent="1" source="L-U1fICnltMbJxQBlIye-20" target="L-U1fICnltMbJxQBlIye-21" edge="1">
          <mxGeometry relative="1" as="geometry" />
        </mxCell>
        <mxCell id="L-U1fICnltMbJxQBlIye-20" value="&lt;font style=&quot;line-height: 170%;&quot;&gt;&lt;font style=&quot;font-size: 18px; line-height: 170%;&quot;&gt;Custom FE Services (IFrame Embedable)&lt;/font&gt;&lt;br&gt;&lt;span&gt;&lt;font style=&quot;font-size: 16px; line-height: 170%;&quot;&gt;(Dealer Portal, OEM Portal &amp;amp; Secure Checkout)&lt;/font&gt;&lt;/span&gt;&lt;/font&gt;" style="rounded=0;whiteSpace=wrap;html=1;fillColor=#99CCFF;strokeColor=#6c8ebf;" parent="1" vertex="1">
          <mxGeometry x="880" y="320" width="440" height="120" as="geometry" />
        </mxCell>
        <mxCell id="L-U1fICnltMbJxQBlIye-63" style="edgeStyle=orthogonalEdgeStyle;rounded=0;orthogonalLoop=1;jettySize=auto;html=1;entryX=0.75;entryY=1;entryDx=0;entryDy=0;exitX=0.25;exitY=1;exitDx=0;exitDy=0;" parent="1" source="L-U1fICnltMbJxQBlIye-21" target="L-U1fICnltMbJxQBlIye-16" edge="1">
          <mxGeometry relative="1" as="geometry">
            <Array as="points">
              <mxPoint x="991" y="680" />
              <mxPoint x="680" y="680" />
              <mxPoint x="680" y="1080" />
              <mxPoint x="370" y="1080" />
            </Array>
          </mxGeometry>
        </mxCell>
        <mxCell id="L-U1fICnltMbJxQBlIye-21" value="&lt;font style=&quot;line-height: 160%;&quot;&gt;&lt;font style=&quot;font-size: 18px; line-height: 160%;&quot;&gt;Custom BE Services&lt;/font&gt;&lt;br&gt;&lt;/font&gt;" style="rounded=0;whiteSpace=wrap;html=1;fillColor=#99CCFF;strokeColor=#82b366;" parent="1" vertex="1">
          <mxGeometry x="881" y="520" width="440" height="80" as="geometry" />
        </mxCell>
        <mxCell id="L-U1fICnltMbJxQBlIye-22" value="" style="rounded=0;whiteSpace=wrap;html=1;fillColor=light-dark(#e4eefb, #1d293b);strokeColor=#6c8ebf;fillStyle=auto;" parent="1" vertex="1">
          <mxGeometry x="841" y="720" width="520" height="400" as="geometry" />
        </mxCell>
        <mxCell id="L-U1fICnltMbJxQBlIye-23" value="&lt;h2&gt;&lt;b&gt;Program Integration&lt;/b&gt;&lt;/h2&gt;" style="text;html=1;align=center;verticalAlign=middle;whiteSpace=wrap;rounded=0;fontColor=#4D4D4D;" parent="1" vertex="1">
          <mxGeometry x="966" y="730" width="270" height="30" as="geometry" />
        </mxCell>
        <mxCell id="L-U1fICnltMbJxQBlIye-24" value="&lt;font style=&quot;line-height: 160%;&quot;&gt;&lt;font style=&quot;font-size: 18px; line-height: 160%;&quot;&gt;Program Integration Service&lt;/font&gt;&lt;br&gt;&lt;/font&gt;" style="rounded=0;whiteSpace=wrap;html=1;fillColor=#99CCFF;strokeColor=#82b366;" parent="1" vertex="1">
          <mxGeometry x="881" y="800" width="440" height="80" as="geometry" />
        </mxCell>
        <mxCell id="L-U1fICnltMbJxQBlIye-25" value="" style="rounded=0;whiteSpace=wrap;html=1;fillColor=light-dark(#fdf3e8, #36210a);strokeColor=#d79b00;fillStyle=auto;" parent="1" vertex="1">
          <mxGeometry x="1680" y="240" width="520" height="400" as="geometry" />
        </mxCell>
        <mxCell id="L-U1fICnltMbJxQBlIye-26" value="&lt;h2&gt;&lt;b&gt;GM Applications&lt;/b&gt;&lt;/h2&gt;" style="text;html=1;align=center;verticalAlign=middle;whiteSpace=wrap;rounded=0;fontColor=#4D4D4D;" parent="1" vertex="1">
          <mxGeometry x="1805" y="250" width="270" height="30" as="geometry" />
        </mxCell>
        <mxCell id="L-U1fICnltMbJxQBlIye-27" value="&lt;font style=&quot;line-height: 160%;&quot;&gt;&lt;font style=&quot;font-size: 18px; line-height: 160%;&quot;&gt;GM BE Service&lt;/font&gt;&lt;br&gt;&lt;/font&gt;" style="rounded=0;whiteSpace=wrap;html=1;fillColor=light-dark(#f9d5ae, #36210a);strokeColor=#d79b00;" parent="1" vertex="1">
          <mxGeometry x="1720" y="320" width="440" height="80" as="geometry" />
        </mxCell>
        <mxCell id="L-U1fICnltMbJxQBlIye-28" value="&lt;font style=&quot;line-height: 160%;&quot;&gt;&lt;font style=&quot;font-size: 18px; line-height: 160%;&quot;&gt;Platform IDP Service (FE + BE)&lt;/font&gt;&lt;br&gt;&lt;/font&gt;" style="rounded=0;whiteSpace=wrap;html=1;fillColor=#BBEAB8;strokeColor=#82b366;" parent="1" vertex="1">
          <mxGeometry x="40" y="1110" width="440" height="80" as="geometry" />
        </mxCell>
        <mxCell id="L-U1fICnltMbJxQBlIye-31" value="3. IFrame Access Validation (Domain)" style="text;html=1;align=center;verticalAlign=middle;whiteSpace=wrap;rounded=1;fillColor=#647687;fontColor=#ffffff;strokeColor=none;" parent="1" vertex="1">
          <mxGeometry x="20" y="460" width="120" height="40" as="geometry" />
        </mxCell>
        <mxCell id="L-U1fICnltMbJxQBlIye-33" value="4. Generate Context ID" style="text;html=1;align=center;verticalAlign=middle;whiteSpace=wrap;rounded=1;fillColor=#647687;fontColor=#ffffff;strokeColor=none;" parent="1" vertex="1">
          <mxGeometry x="160" y="460" width="120" height="40" as="geometry" />
        </mxCell>
        <mxCell id="L-U1fICnltMbJxQBlIye-35" value="6. Request with&amp;nbsp;&lt;span style=&quot;background-color: transparent; color: light-dark(rgb(255, 255, 255), rgb(18, 18, 18));&quot;&gt;ContextID&lt;/span&gt;" style="text;html=1;align=center;verticalAlign=middle;whiteSpace=wrap;rounded=1;fillColor=#647687;fontColor=#ffffff;strokeColor=none;" parent="1" vertex="1">
          <mxGeometry x="1160" y="460" width="120" height="40" as="geometry" />
        </mxCell>
        <mxCell id="L-U1fICnltMbJxQBlIye-36" value="7. Authorized request with ContextID" style="text;html=1;align=center;verticalAlign=middle;whiteSpace=wrap;rounded=1;fillColor=#647687;fontColor=#ffffff;strokeColor=none;" parent="1" vertex="1">
          <mxGeometry x="926" y="660" width="120" height="40" as="geometry" />
        </mxCell>
        <mxCell id="L-U1fICnltMbJxQBlIye-37" value="8. Verify Authorization" style="text;html=1;align=center;verticalAlign=middle;whiteSpace=wrap;rounded=1;fillColor=#647687;fontColor=#ffffff;strokeColor=none;" parent="1" vertex="1">
          <mxGeometry x="620" y="950" width="120" height="40" as="geometry" />
        </mxCell>
        <mxCell id="L-U1fICnltMbJxQBlIye-38" value="9. Authorize API calls" style="text;html=1;align=center;verticalAlign=middle;whiteSpace=wrap;rounded=1;fillColor=#647687;fontColor=#ffffff;strokeColor=none;" parent="1" vertex="1">
          <mxGeometry x="49" y="900" width="120" height="40" as="geometry" />
        </mxCell>
        <mxCell id="L-U1fICnltMbJxQBlIye-45" value="" style="group" parent="1" vertex="1" connectable="0">
          <mxGeometry x="620" y="330" width="120" height="40" as="geometry" />
        </mxCell>
        <mxCell id="L-U1fICnltMbJxQBlIye-43" style="edgeStyle=orthogonalEdgeStyle;rounded=0;orthogonalLoop=1;jettySize=auto;html=1;entryX=0;entryY=0.25;entryDx=0;entryDy=0;exitX=1;exitY=0.25;exitDx=0;exitDy=0;" parent="L-U1fICnltMbJxQBlIye-45" source="L-U1fICnltMbJxQBlIye-11" target="L-U1fICnltMbJxQBlIye-20" edge="1">
          <mxGeometry relative="1" as="geometry" />
        </mxCell>
        <mxCell id="L-U1fICnltMbJxQBlIye-29" value="1. Embed IFrame" style="text;html=1;align=center;verticalAlign=middle;whiteSpace=wrap;rounded=1;fillColor=#647687;fontColor=#ffffff;strokeColor=none;" parent="L-U1fICnltMbJxQBlIye-45" vertex="1">
          <mxGeometry width="120" height="40" as="geometry" />
        </mxCell>
        <mxCell id="L-U1fICnltMbJxQBlIye-47" value="" style="group" parent="1" vertex="1" connectable="0">
          <mxGeometry x="370" y="250" width="620" height="60" as="geometry" />
        </mxCell>
        <mxCell id="L-U1fICnltMbJxQBlIye-46" style="edgeStyle=orthogonalEdgeStyle;rounded=0;orthogonalLoop=1;jettySize=auto;html=1;entryX=0.25;entryY=0;entryDx=0;entryDy=0;exitX=0.75;exitY=0;exitDx=0;exitDy=0;endArrow=none;startFill=0;" parent="L-U1fICnltMbJxQBlIye-47" source="L-U1fICnltMbJxQBlIye-11" target="L-U1fICnltMbJxQBlIye-20" edge="1">
          <mxGeometry relative="1" as="geometry">
            <Array as="points">
              <mxPoint y="30" />
              <mxPoint x="620" y="30" />
            </Array>
          </mxGeometry>
        </mxCell>
        <mxCell id="L-U1fICnltMbJxQBlIye-42" value="&lt;b&gt;NO DATA EXCHANGE&lt;/b&gt;" style="text;html=1;align=center;verticalAlign=middle;whiteSpace=wrap;rounded=1;fillColor=#647687;fontColor=#ffffff;strokeColor=none;" parent="L-U1fICnltMbJxQBlIye-47" vertex="1">
          <mxGeometry x="250" width="120" height="60" as="geometry" />
        </mxCell>
        <mxCell id="L-U1fICnltMbJxQBlIye-53" value="" style="group" parent="1" vertex="1" connectable="0">
          <mxGeometry x="620" y="390" width="120" height="40" as="geometry" />
        </mxCell>
        <mxCell id="L-U1fICnltMbJxQBlIye-51" style="edgeStyle=orthogonalEdgeStyle;rounded=0;orthogonalLoop=1;jettySize=auto;html=1;entryX=0;entryY=0.75;entryDx=0;entryDy=0;exitX=1;exitY=0.75;exitDx=0;exitDy=0;startArrow=classic;startFill=1;endArrow=none;" parent="L-U1fICnltMbJxQBlIye-53" source="L-U1fICnltMbJxQBlIye-11" target="L-U1fICnltMbJxQBlIye-20" edge="1">
          <mxGeometry relative="1" as="geometry" />
        </mxCell>
        <mxCell id="L-U1fICnltMbJxQBlIye-30" value="2.&lt;b&gt; LOADED&lt;/b&gt;" style="text;html=1;align=center;verticalAlign=middle;whiteSpace=wrap;rounded=1;fillColor=#647687;fontColor=#ffffff;strokeColor=none;" parent="L-U1fICnltMbJxQBlIye-53" vertex="1">
          <mxGeometry width="120" height="40" as="geometry" />
        </mxCell>
        <mxCell id="L-U1fICnltMbJxQBlIye-57" value="" style="group" parent="1" vertex="1" connectable="0">
          <mxGeometry x="431" y="450" width="499" height="40" as="geometry" />
        </mxCell>
        <mxCell id="L-U1fICnltMbJxQBlIye-56" style="edgeStyle=orthogonalEdgeStyle;rounded=0;orthogonalLoop=1;jettySize=auto;html=1;entryX=0.114;entryY=1;entryDx=0;entryDy=0;entryPerimeter=0;exitX=0.889;exitY=1.006;exitDx=0;exitDy=0;exitPerimeter=0;" parent="L-U1fICnltMbJxQBlIye-57" source="L-U1fICnltMbJxQBlIye-11" target="L-U1fICnltMbJxQBlIye-20" edge="1">
          <mxGeometry relative="1" as="geometry">
            <Array as="points">
              <mxPoint y="20" />
              <mxPoint x="499" y="20" />
            </Array>
          </mxGeometry>
        </mxCell>
        <mxCell id="L-U1fICnltMbJxQBlIye-34" value="5.&lt;b&gt;INIT_DATA with&amp;nbsp;&lt;/b&gt;&lt;span style=&quot;background-color: transparent; color: light-dark(rgb(255, 255, 255), rgb(18, 18, 18));&quot;&gt;ContextID&lt;/span&gt;" style="text;html=1;align=center;verticalAlign=middle;whiteSpace=wrap;rounded=1;fillColor=#647687;fontColor=#ffffff;strokeColor=none;" parent="L-U1fICnltMbJxQBlIye-57" vertex="1">
          <mxGeometry x="189" width="120" height="40" as="geometry" />
        </mxCell>
        <mxCell id="L-U1fICnltMbJxQBlIye-59" value="" style="group" parent="1" vertex="1" connectable="0">
          <mxGeometry x="370" y="520" width="620" height="60" as="geometry" />
        </mxCell>
        <mxCell id="L-U1fICnltMbJxQBlIye-58" style="edgeStyle=orthogonalEdgeStyle;rounded=0;orthogonalLoop=1;jettySize=auto;html=1;entryX=0.75;entryY=1;entryDx=0;entryDy=0;exitX=0.25;exitY=1;exitDx=0;exitDy=0;" parent="L-U1fICnltMbJxQBlIye-59" source="L-U1fICnltMbJxQBlIye-20" target="L-U1fICnltMbJxQBlIye-11" edge="1">
          <mxGeometry relative="1" as="geometry">
            <Array as="points">
              <mxPoint x="620" y="30" />
              <mxPoint y="30" />
            </Array>
          </mxGeometry>
        </mxCell>
        <mxCell id="L-U1fICnltMbJxQBlIye-41" value="12. &lt;b&gt;Status Events&lt;br&gt;(LOADED, UPDATED etc)&lt;/b&gt;" style="text;html=1;align=center;verticalAlign=middle;whiteSpace=wrap;rounded=1;fillColor=#647687;fontColor=#ffffff;strokeColor=none;" parent="L-U1fICnltMbJxQBlIye-59" vertex="1">
          <mxGeometry x="250" width="120" height="60" as="geometry" />
        </mxCell>
        <mxCell id="L-U1fICnltMbJxQBlIye-61" style="edgeStyle=orthogonalEdgeStyle;rounded=0;orthogonalLoop=1;jettySize=auto;html=1;entryX=0.143;entryY=0.002;entryDx=0;entryDy=0;exitX=0.143;exitY=1.002;exitDx=0;exitDy=0;exitPerimeter=0;entryPerimeter=0;startArrow=classic;startFill=1;" parent="1" source="L-U1fICnltMbJxQBlIye-12" target="L-U1fICnltMbJxQBlIye-15" edge="1">
          <mxGeometry relative="1" as="geometry" />
        </mxCell>
        <mxCell id="L-U1fICnltMbJxQBlIye-39" value="10. Data Exchange" style="text;html=1;align=center;verticalAlign=middle;whiteSpace=wrap;rounded=1;fillColor=#647687;fontColor=#ffffff;strokeColor=none;" parent="1" vertex="1">
          <mxGeometry x="41" y="660" width="120" height="40" as="geometry" />
        </mxCell>
        <mxCell id="L-U1fICnltMbJxQBlIye-64" style="edgeStyle=orthogonalEdgeStyle;rounded=0;orthogonalLoop=1;jettySize=auto;html=1;entryX=0.75;entryY=0;entryDx=0;entryDy=0;exitX=0.75;exitY=1;exitDx=0;exitDy=0;" parent="1" source="L-U1fICnltMbJxQBlIye-21" target="L-U1fICnltMbJxQBlIye-24" edge="1">
          <mxGeometry relative="1" as="geometry" />
        </mxCell>
        <mxCell id="L-U1fICnltMbJxQBlIye-65" style="edgeStyle=orthogonalEdgeStyle;rounded=0;orthogonalLoop=1;jettySize=auto;html=1;entryX=0.25;entryY=1;entryDx=0;entryDy=0;exitX=0.75;exitY=1;exitDx=0;exitDy=0;startArrow=classic;startFill=1;" parent="1" source="L-U1fICnltMbJxQBlIye-24" target="L-U1fICnltMbJxQBlIye-27" edge="1">
          <mxGeometry relative="1" as="geometry">
            <Array as="points">
              <mxPoint x="1211" y="920" />
              <mxPoint x="1830" y="920" />
            </Array>
          </mxGeometry>
        </mxCell>
        <mxCell id="L-U1fICnltMbJxQBlIye-40" value="11. Client Data Exchange" style="text;html=1;align=center;verticalAlign=middle;whiteSpace=wrap;rounded=1;fillColor=#647687;fontColor=#ffffff;strokeColor=none;" parent="1" vertex="1">
          <mxGeometry x="1470" y="900" width="120" height="40" as="geometry" />
        </mxCell>
        <mxCell id="L-U1fICnltMbJxQBlIye-67" value="" style="rounded=0;whiteSpace=wrap;html=1;fillColor=#eeeeee;strokeColor=none;" parent="1" vertex="1">
          <mxGeometry x="-160" y="1680" width="2440" height="1280" as="geometry" />
        </mxCell>
        <mxCell id="L-U1fICnltMbJxQBlIye-68" value="" style="rounded=0;whiteSpace=wrap;html=1;fillColor=#f5f5f5;fontColor=#333333;strokeColor=#CCCCCC;" parent="1" vertex="1">
          <mxGeometry x="-80" y="1760" width="600" height="1120" as="geometry" />
        </mxCell>
        <mxCell id="L-U1fICnltMbJxQBlIye-69" value="" style="rounded=0;whiteSpace=wrap;html=1;fillColor=#f5f5f5;fontColor=#333333;strokeColor=#CCCCCC;" parent="1" vertex="1">
          <mxGeometry x="760" y="1760" width="600" height="1120" as="geometry" />
        </mxCell>
        <mxCell id="L-U1fICnltMbJxQBlIye-70" value="" style="rounded=0;whiteSpace=wrap;html=1;fillColor=#f5f5f5;fontColor=#333333;strokeColor=#CCCCCC;" parent="1" vertex="1">
          <mxGeometry x="1600" y="1760" width="600" height="1120" as="geometry" />
        </mxCell>
        <mxCell id="L-U1fICnltMbJxQBlIye-71" value="&lt;h1&gt;&lt;b&gt;Platform Systems&lt;/b&gt;&lt;/h1&gt;" style="text;html=1;align=center;verticalAlign=middle;whiteSpace=wrap;rounded=0;fontColor=#4D4D4D;" parent="1" vertex="1">
          <mxGeometry x="85" y="1770" width="270" height="30" as="geometry" />
        </mxCell>
        <mxCell id="L-U1fICnltMbJxQBlIye-72" value="&lt;h1&gt;&lt;b&gt;Program Systems&lt;/b&gt;&lt;/h1&gt;" style="text;html=1;align=center;verticalAlign=middle;whiteSpace=wrap;rounded=0;fontColor=#4D4D4D;" parent="1" vertex="1">
          <mxGeometry x="926" y="1770" width="270" height="30" as="geometry" />
        </mxCell>
        <mxCell id="L-U1fICnltMbJxQBlIye-73" value="&lt;h1&gt;&lt;b&gt;GM Systems&lt;/b&gt;&lt;/h1&gt;" style="text;html=1;align=center;verticalAlign=middle;whiteSpace=wrap;rounded=0;fontColor=#4D4D4D;" parent="1" vertex="1">
          <mxGeometry x="1765" y="1770" width="270" height="30" as="geometry" />
        </mxCell>
        <mxCell id="L-U1fICnltMbJxQBlIye-74" value="" style="rounded=0;whiteSpace=wrap;html=1;fillColor=#DAE7D9;strokeColor=#82b366;fillStyle=auto;" parent="1" vertex="1">
          <mxGeometry x="-40" y="1840" width="520" height="400" as="geometry" />
        </mxCell>
        <mxCell id="L-U1fICnltMbJxQBlIye-75" value="&lt;h2&gt;&lt;b&gt;Platform Applications&lt;/b&gt;&lt;/h2&gt;" style="text;html=1;align=center;verticalAlign=middle;whiteSpace=wrap;rounded=0;fontColor=#4D4D4D;" parent="1" vertex="1">
          <mxGeometry x="85" y="1850" width="270" height="30" as="geometry" />
        </mxCell>
        <mxCell id="L-U1fICnltMbJxQBlIye-76" style="edgeStyle=orthogonalEdgeStyle;rounded=0;orthogonalLoop=1;jettySize=auto;html=1;entryX=0.25;entryY=0;entryDx=0;entryDy=0;exitX=0.25;exitY=1;exitDx=0;exitDy=0;startArrow=classic;startFill=1;" parent="1" source="L-U1fICnltMbJxQBlIye-77" target="L-U1fICnltMbJxQBlIye-78" edge="1">
          <mxGeometry relative="1" as="geometry" />
        </mxCell>
        <mxCell id="L-U1fICnltMbJxQBlIye-77" value="&lt;font style=&quot;line-height: 170%;&quot;&gt;&lt;font style=&quot;font-size: 18px; line-height: 170%;&quot;&gt;Platform FE Services&lt;/font&gt;&lt;br&gt;&lt;span&gt;&lt;font style=&quot;font-size: 16px; line-height: 170%;&quot;&gt;(Dealer Portal, OEM Portal &amp;amp; Secure Checkout)&lt;/font&gt;&lt;/span&gt;&lt;/font&gt;" style="rounded=0;whiteSpace=wrap;html=1;fillColor=#BBEAB8;strokeColor=#82b366;" parent="1" vertex="1">
          <mxGeometry y="1920" width="440" height="120" as="geometry" />
        </mxCell>
        <mxCell id="L-U1fICnltMbJxQBlIye-78" value="&lt;font style=&quot;line-height: 160%;&quot;&gt;&lt;font style=&quot;font-size: 18px; line-height: 160%;&quot;&gt;Platform BE Services&lt;/font&gt;&lt;br&gt;&lt;/font&gt;" style="rounded=0;whiteSpace=wrap;html=1;fillColor=#BBEAB8;strokeColor=#82b366;" parent="1" vertex="1">
          <mxGeometry y="2120" width="440" height="80" as="geometry" />
        </mxCell>
        <mxCell id="L-U1fICnltMbJxQBlIye-79" value="" style="rounded=0;whiteSpace=wrap;html=1;fillColor=#DAE7D9;strokeColor=#82b366;fillStyle=auto;" parent="1" vertex="1">
          <mxGeometry x="-40" y="2320" width="520" height="520" as="geometry" />
        </mxCell>
        <mxCell id="L-U1fICnltMbJxQBlIye-80" value="&lt;h2&gt;&lt;b&gt;Platform Integration&lt;/b&gt;&lt;/h2&gt;" style="text;html=1;align=center;verticalAlign=middle;whiteSpace=wrap;rounded=0;fontColor=#4D4D4D;" parent="1" vertex="1">
          <mxGeometry x="85" y="2330" width="270" height="30" as="geometry" />
        </mxCell>
        <mxCell id="L-U1fICnltMbJxQBlIye-81" value="&lt;font style=&quot;line-height: 160%;&quot;&gt;&lt;font style=&quot;font-size: 18px; line-height: 160%;&quot;&gt;Platform Integration Service&lt;/font&gt;&lt;br&gt;&lt;/font&gt;" style="rounded=0;whiteSpace=wrap;html=1;fillColor=#BBEAB8;strokeColor=#82b366;" parent="1" vertex="1">
          <mxGeometry y="2400" width="440" height="80" as="geometry" />
        </mxCell>
        <mxCell id="L-U1fICnltMbJxQBlIye-82" style="edgeStyle=orthogonalEdgeStyle;rounded=0;orthogonalLoop=1;jettySize=auto;html=1;entryX=0.151;entryY=0.988;entryDx=0;entryDy=0;entryPerimeter=0;exitX=0.151;exitY=0.004;exitDx=0;exitDy=0;exitPerimeter=0;" parent="1" source="L-U1fICnltMbJxQBlIye-83" target="L-U1fICnltMbJxQBlIye-81" edge="1">
          <mxGeometry relative="1" as="geometry" />
        </mxCell>
        <mxCell id="L-U1fICnltMbJxQBlIye-83" value="&lt;font style=&quot;line-height: 160%;&quot;&gt;&lt;font style=&quot;font-size: 18px; line-height: 160%;&quot;&gt;Platform Authorization Service&lt;/font&gt;&lt;br&gt;&lt;/font&gt;" style="rounded=0;whiteSpace=wrap;html=1;fillColor=#BBEAB8;strokeColor=#82b366;" parent="1" vertex="1">
          <mxGeometry y="2560" width="440" height="80" as="geometry" />
        </mxCell>
        <mxCell id="L-U1fICnltMbJxQBlIye-84" value="" style="rounded=0;whiteSpace=wrap;html=1;fillColor=light-dark(#e2edfd, #1d293b);strokeColor=#6c8ebf;fillStyle=auto;" parent="1" vertex="1">
          <mxGeometry x="801" y="1840" width="520" height="400" as="geometry" />
        </mxCell>
        <mxCell id="L-U1fICnltMbJxQBlIye-85" value="&lt;h2&gt;&lt;b&gt;Program Applications&lt;/b&gt;&lt;/h2&gt;" style="text;html=1;align=center;verticalAlign=middle;whiteSpace=wrap;rounded=0;fontColor=#4D4D4D;" parent="1" vertex="1">
          <mxGeometry x="926" y="1850" width="270" height="30" as="geometry" />
        </mxCell>
        <mxCell id="L-U1fICnltMbJxQBlIye-86" style="edgeStyle=orthogonalEdgeStyle;rounded=0;orthogonalLoop=1;jettySize=auto;html=1;entryX=0.773;entryY=-0.004;entryDx=0;entryDy=0;exitX=0.772;exitY=0.986;exitDx=0;exitDy=0;exitPerimeter=0;entryPerimeter=0;" parent="1" source="L-U1fICnltMbJxQBlIye-87" target="L-U1fICnltMbJxQBlIye-89" edge="1">
          <mxGeometry relative="1" as="geometry" />
        </mxCell>
        <mxCell id="L-U1fICnltMbJxQBlIye-87" value="&lt;font style=&quot;line-height: 170%;&quot;&gt;&lt;font style=&quot;font-size: 18px; line-height: 170%;&quot;&gt;Custom FE Services (IFrame Embedable)&lt;/font&gt;&lt;br&gt;&lt;span&gt;&lt;font style=&quot;font-size: 16px; line-height: 170%;&quot;&gt;(Dealer Portal, OEM Portal &amp;amp; Secure Checkout)&lt;/font&gt;&lt;/span&gt;&lt;/font&gt;" style="rounded=0;whiteSpace=wrap;html=1;fillColor=#99CCFF;strokeColor=#6c8ebf;" parent="1" vertex="1">
          <mxGeometry x="840" y="1920" width="440" height="120" as="geometry" />
        </mxCell>
        <mxCell id="L-U1fICnltMbJxQBlIye-88" style="edgeStyle=orthogonalEdgeStyle;rounded=0;orthogonalLoop=1;jettySize=auto;html=1;entryX=0.75;entryY=1;entryDx=0;entryDy=0;exitX=0.25;exitY=1;exitDx=0;exitDy=0;" parent="1" source="L-U1fICnltMbJxQBlIye-89" target="L-U1fICnltMbJxQBlIye-83" edge="1">
          <mxGeometry relative="1" as="geometry">
            <Array as="points">
              <mxPoint x="951" y="2280" />
              <mxPoint x="640" y="2280" />
              <mxPoint x="640" y="2680" />
              <mxPoint x="330" y="2680" />
            </Array>
          </mxGeometry>
        </mxCell>
        <mxCell id="L-U1fICnltMbJxQBlIye-89" value="&lt;font style=&quot;line-height: 160%;&quot;&gt;&lt;font style=&quot;font-size: 18px; line-height: 160%;&quot;&gt;Custom BE Services&lt;/font&gt;&lt;br&gt;&lt;/font&gt;" style="rounded=0;whiteSpace=wrap;html=1;fillColor=#99CCFF;strokeColor=#82b366;" parent="1" vertex="1">
          <mxGeometry x="841" y="2120" width="440" height="80" as="geometry" />
        </mxCell>
        <mxCell id="L-U1fICnltMbJxQBlIye-90" value="" style="rounded=0;whiteSpace=wrap;html=1;fillColor=light-dark(#e4eefb, #1d293b);strokeColor=#6c8ebf;fillStyle=auto;" parent="1" vertex="1">
          <mxGeometry x="801" y="2320" width="520" height="400" as="geometry" />
        </mxCell>
        <mxCell id="L-U1fICnltMbJxQBlIye-91" value="&lt;h2&gt;&lt;b&gt;Program Integration&lt;/b&gt;&lt;/h2&gt;" style="text;html=1;align=center;verticalAlign=middle;whiteSpace=wrap;rounded=0;fontColor=#4D4D4D;" parent="1" vertex="1">
          <mxGeometry x="926" y="2330" width="270" height="30" as="geometry" />
        </mxCell>
        <mxCell id="L-U1fICnltMbJxQBlIye-92" value="&lt;font style=&quot;line-height: 160%;&quot;&gt;&lt;font style=&quot;font-size: 18px; line-height: 160%;&quot;&gt;Program Integration Service&lt;/font&gt;&lt;br&gt;&lt;/font&gt;" style="rounded=0;whiteSpace=wrap;html=1;fillColor=#99CCFF;strokeColor=#82b366;" parent="1" vertex="1">
          <mxGeometry x="841" y="2400" width="440" height="80" as="geometry" />
        </mxCell>
        <mxCell id="L-U1fICnltMbJxQBlIye-93" value="" style="rounded=0;whiteSpace=wrap;html=1;fillColor=light-dark(#fdf3e8, #36210a);strokeColor=#d79b00;fillStyle=auto;" parent="1" vertex="1">
          <mxGeometry x="1640" y="1840" width="520" height="400" as="geometry" />
        </mxCell>
        <mxCell id="L-U1fICnltMbJxQBlIye-94" value="&lt;h2&gt;&lt;b&gt;GM Applications&lt;/b&gt;&lt;/h2&gt;" style="text;html=1;align=center;verticalAlign=middle;whiteSpace=wrap;rounded=0;fontColor=#4D4D4D;" parent="1" vertex="1">
          <mxGeometry x="1765" y="1850" width="270" height="30" as="geometry" />
        </mxCell>
        <mxCell id="L-U1fICnltMbJxQBlIye-95" value="&lt;font style=&quot;line-height: 160%;&quot;&gt;&lt;font style=&quot;font-size: 18px; line-height: 160%;&quot;&gt;GM BE Service&lt;/font&gt;&lt;br&gt;&lt;/font&gt;" style="rounded=0;whiteSpace=wrap;html=1;fillColor=light-dark(#f9d5ae, #36210a);strokeColor=#d79b00;" parent="1" vertex="1">
          <mxGeometry x="1680" y="1920" width="440" height="80" as="geometry" />
        </mxCell>
        <mxCell id="L-U1fICnltMbJxQBlIye-96" value="&lt;font style=&quot;line-height: 160%;&quot;&gt;&lt;font style=&quot;font-size: 18px; line-height: 160%;&quot;&gt;Platform IDP Service (FE + BE)&lt;/font&gt;&lt;br&gt;&lt;/font&gt;" style="rounded=0;whiteSpace=wrap;html=1;fillColor=#BBEAB8;strokeColor=#82b366;" parent="1" vertex="1">
          <mxGeometry y="2710" width="440" height="80" as="geometry" />
        </mxCell>
        <mxCell id="L-U1fICnltMbJxQBlIye-97" value="IFrame Access Validation (Domain)" style="text;html=1;align=center;verticalAlign=middle;whiteSpace=wrap;rounded=1;fillColor=#647687;fontColor=#ffffff;strokeColor=none;" parent="1" vertex="1">
          <mxGeometry x="-20" y="2060" width="120" height="40" as="geometry" />
        </mxCell>
        <mxCell id="L-U1fICnltMbJxQBlIye-98" value="Generate Context ID" style="text;html=1;align=center;verticalAlign=middle;whiteSpace=wrap;rounded=1;fillColor=#647687;fontColor=#ffffff;strokeColor=none;" parent="1" vertex="1">
          <mxGeometry x="120" y="2060" width="120" height="40" as="geometry" />
        </mxCell>
        <mxCell id="L-U1fICnltMbJxQBlIye-99" value="Request with&amp;nbsp;&lt;span style=&quot;background-color: transparent; color: light-dark(rgb(255, 255, 255), rgb(18, 18, 18));&quot;&gt;ContextID&lt;/span&gt;" style="text;html=1;align=center;verticalAlign=middle;whiteSpace=wrap;rounded=1;fillColor=#647687;fontColor=#ffffff;strokeColor=none;" parent="1" vertex="1">
          <mxGeometry x="1120" y="2060" width="120" height="40" as="geometry" />
        </mxCell>
        <mxCell id="L-U1fICnltMbJxQBlIye-100" value="Authorized request with ContextID" style="text;html=1;align=center;verticalAlign=middle;whiteSpace=wrap;rounded=1;fillColor=#647687;fontColor=#ffffff;strokeColor=none;" parent="1" vertex="1">
          <mxGeometry x="886" y="2260" width="120" height="40" as="geometry" />
        </mxCell>
        <mxCell id="L-U1fICnltMbJxQBlIye-101" value="Verify Authorization" style="text;html=1;align=center;verticalAlign=middle;whiteSpace=wrap;rounded=1;fillColor=#647687;fontColor=#ffffff;strokeColor=none;" parent="1" vertex="1">
          <mxGeometry x="580" y="2550" width="120" height="40" as="geometry" />
        </mxCell>
        <mxCell id="L-U1fICnltMbJxQBlIye-102" value="Authorize API calls" style="text;html=1;align=center;verticalAlign=middle;whiteSpace=wrap;rounded=1;fillColor=#647687;fontColor=#ffffff;strokeColor=none;" parent="1" vertex="1">
          <mxGeometry x="9" y="2503" width="120" height="40" as="geometry" />
        </mxCell>
        <mxCell id="L-U1fICnltMbJxQBlIye-103" value="" style="group" parent="1" vertex="1" connectable="0">
          <mxGeometry x="580" y="1930" width="120" height="40" as="geometry" />
        </mxCell>
        <mxCell id="L-U1fICnltMbJxQBlIye-104" style="edgeStyle=orthogonalEdgeStyle;rounded=0;orthogonalLoop=1;jettySize=auto;html=1;entryX=0;entryY=0.25;entryDx=0;entryDy=0;exitX=1;exitY=0.25;exitDx=0;exitDy=0;" parent="L-U1fICnltMbJxQBlIye-103" source="L-U1fICnltMbJxQBlIye-77" target="L-U1fICnltMbJxQBlIye-87" edge="1">
          <mxGeometry relative="1" as="geometry" />
        </mxCell>
        <mxCell id="L-U1fICnltMbJxQBlIye-105" value="Embed IFrame" style="text;html=1;align=center;verticalAlign=middle;whiteSpace=wrap;rounded=1;fillColor=#647687;fontColor=#ffffff;strokeColor=none;" parent="L-U1fICnltMbJxQBlIye-103" vertex="1">
          <mxGeometry width="120" height="40" as="geometry" />
        </mxCell>
        <mxCell id="L-U1fICnltMbJxQBlIye-106" value="" style="group" parent="1" vertex="1" connectable="0">
          <mxGeometry x="330" y="1850" width="620" height="60" as="geometry" />
        </mxCell>
        <mxCell id="L-U1fICnltMbJxQBlIye-107" style="edgeStyle=orthogonalEdgeStyle;rounded=0;orthogonalLoop=1;jettySize=auto;html=1;entryX=0.25;entryY=0;entryDx=0;entryDy=0;exitX=0.75;exitY=0;exitDx=0;exitDy=0;endArrow=none;startFill=0;strokeWidth=2;" parent="L-U1fICnltMbJxQBlIye-106" source="L-U1fICnltMbJxQBlIye-77" target="L-U1fICnltMbJxQBlIye-87" edge="1">
          <mxGeometry relative="1" as="geometry">
            <Array as="points">
              <mxPoint y="30" />
              <mxPoint x="620" y="30" />
            </Array>
          </mxGeometry>
        </mxCell>
        <mxCell id="L-U1fICnltMbJxQBlIye-108" value="&lt;b&gt;NO CLIENT&lt;br&gt;DATA EXCHANGE&lt;/b&gt;" style="text;html=1;align=center;verticalAlign=middle;whiteSpace=wrap;rounded=1;fillColor=#647687;fontColor=#ffffff;strokeColor=none;" parent="L-U1fICnltMbJxQBlIye-106" vertex="1">
          <mxGeometry x="250" width="120" height="60" as="geometry" />
        </mxCell>
        <mxCell id="L-U1fICnltMbJxQBlIye-115" value="" style="group" parent="1" vertex="1" connectable="0">
          <mxGeometry x="330" y="2120" width="620" height="80" as="geometry" />
        </mxCell>
        <mxCell id="L-U1fICnltMbJxQBlIye-116" style="edgeStyle=orthogonalEdgeStyle;rounded=0;orthogonalLoop=1;jettySize=auto;html=1;entryX=0.75;entryY=1;entryDx=0;entryDy=0;exitX=0.25;exitY=1;exitDx=0;exitDy=0;startArrow=classic;startFill=1;" parent="L-U1fICnltMbJxQBlIye-115" source="L-U1fICnltMbJxQBlIye-87" target="L-U1fICnltMbJxQBlIye-77" edge="1">
          <mxGeometry relative="1" as="geometry">
            <Array as="points">
              <mxPoint x="620" y="-30" />
              <mxPoint y="-30" />
            </Array>
          </mxGeometry>
        </mxCell>
        <mxCell id="L-U1fICnltMbJxQBlIye-117" value="&lt;b&gt;Status Events&lt;br&gt;(INIT_DATA, LOADED, UPDATED etc)&lt;/b&gt;" style="text;html=1;align=center;verticalAlign=middle;whiteSpace=wrap;rounded=1;fillColor=#647687;fontColor=#ffffff;strokeColor=none;" parent="L-U1fICnltMbJxQBlIye-115" vertex="1">
          <mxGeometry x="250" y="-72" width="120" height="80" as="geometry" />
        </mxCell>
        <mxCell id="L-U1fICnltMbJxQBlIye-118" style="edgeStyle=orthogonalEdgeStyle;rounded=0;orthogonalLoop=1;jettySize=auto;html=1;entryX=0.143;entryY=0.002;entryDx=0;entryDy=0;exitX=0.143;exitY=1.002;exitDx=0;exitDy=0;exitPerimeter=0;entryPerimeter=0;startArrow=classic;startFill=1;" parent="1" source="L-U1fICnltMbJxQBlIye-78" target="L-U1fICnltMbJxQBlIye-81" edge="1">
          <mxGeometry relative="1" as="geometry" />
        </mxCell>
        <mxCell id="L-U1fICnltMbJxQBlIye-119" value="Data Exchange" style="text;html=1;align=center;verticalAlign=middle;whiteSpace=wrap;rounded=1;fillColor=#647687;fontColor=#ffffff;strokeColor=none;" parent="1" vertex="1">
          <mxGeometry x="1" y="2260" width="120" height="40" as="geometry" />
        </mxCell>
        <mxCell id="L-U1fICnltMbJxQBlIye-120" style="edgeStyle=orthogonalEdgeStyle;rounded=0;orthogonalLoop=1;jettySize=auto;html=1;entryX=0.75;entryY=0;entryDx=0;entryDy=0;exitX=0.75;exitY=1;exitDx=0;exitDy=0;" parent="1" source="L-U1fICnltMbJxQBlIye-89" target="L-U1fICnltMbJxQBlIye-92" edge="1">
          <mxGeometry relative="1" as="geometry" />
        </mxCell>
        <mxCell id="L-U1fICnltMbJxQBlIye-121" style="edgeStyle=orthogonalEdgeStyle;rounded=0;orthogonalLoop=1;jettySize=auto;html=1;entryX=0.25;entryY=1;entryDx=0;entryDy=0;exitX=0.75;exitY=1;exitDx=0;exitDy=0;startArrow=classic;startFill=1;" parent="1" source="L-U1fICnltMbJxQBlIye-92" target="L-U1fICnltMbJxQBlIye-95" edge="1">
          <mxGeometry relative="1" as="geometry">
            <Array as="points">
              <mxPoint x="1171" y="2520" />
              <mxPoint x="1790" y="2520" />
            </Array>
          </mxGeometry>
        </mxCell>
        <mxCell id="L-U1fICnltMbJxQBlIye-122" value="Client&lt;div&gt;Data Exchange&lt;/div&gt;" style="text;html=1;align=center;verticalAlign=middle;whiteSpace=wrap;rounded=1;fillColor=#647687;fontColor=#ffffff;strokeColor=none;" parent="1" vertex="1">
          <mxGeometry x="1430" y="2500" width="120" height="40" as="geometry" />
        </mxCell>
        <mxCell id="L-U1fICnltMbJxQBlIye-123" value="" style="rounded=0;whiteSpace=wrap;html=1;fillColor=#eeeeee;strokeColor=none;" parent="1" vertex="1">
          <mxGeometry x="3640" y="80" width="2440" height="1280" as="geometry" />
        </mxCell>
        <mxCell id="L-U1fICnltMbJxQBlIye-124" value="" style="rounded=0;whiteSpace=wrap;html=1;fillColor=#f5f5f5;fontColor=#333333;strokeColor=none;" parent="1" vertex="1">
          <mxGeometry x="3720" y="160" width="600" height="1120" as="geometry" />
        </mxCell>
        <mxCell id="L-U1fICnltMbJxQBlIye-125" value="" style="rounded=0;whiteSpace=wrap;html=1;fillColor=#f5f5f5;fontColor=#333333;strokeColor=none;" parent="1" vertex="1">
          <mxGeometry x="4560" y="160" width="600" height="1120" as="geometry" />
        </mxCell>
        <mxCell id="L-U1fICnltMbJxQBlIye-126" value="" style="rounded=0;whiteSpace=wrap;html=1;fillColor=#f5f5f5;fontColor=#333333;strokeColor=none;" parent="1" vertex="1">
          <mxGeometry x="5400" y="160" width="600" height="1120" as="geometry" />
        </mxCell>
        <mxCell id="L-U1fICnltMbJxQBlIye-127" value="&lt;h1&gt;&lt;b&gt;AEC Platforms&lt;/b&gt;&lt;/h1&gt;" style="text;html=1;align=center;verticalAlign=middle;whiteSpace=wrap;rounded=0;fontColor=#4D4D4D;" parent="1" vertex="1">
          <mxGeometry x="3885" y="170" width="270" height="30" as="geometry" />
        </mxCell>
        <mxCell id="L-U1fICnltMbJxQBlIye-128" value="&lt;h1&gt;&lt;b&gt;OEM/SI Owned Modules&lt;/b&gt;&lt;/h1&gt;" style="text;html=1;align=center;verticalAlign=middle;whiteSpace=wrap;rounded=0;fontColor=#4D4D4D;" parent="1" vertex="1">
          <mxGeometry x="4713" y="170" width="294" height="30" as="geometry" />
        </mxCell>
        <mxCell id="L-U1fICnltMbJxQBlIye-129" value="&lt;h1&gt;&lt;b&gt;OEM Platforms&lt;/b&gt;&lt;/h1&gt;" style="text;html=1;align=center;verticalAlign=middle;whiteSpace=wrap;rounded=0;fontColor=#4D4D4D;" parent="1" vertex="1">
          <mxGeometry x="5565" y="170" width="270" height="30" as="geometry" />
        </mxCell>
        <mxCell id="L-U1fICnltMbJxQBlIye-130" value="" style="rounded=0;whiteSpace=wrap;html=1;fillColor=#E6D0DE;strokeColor=none;fillStyle=auto;" parent="1" vertex="1">
          <mxGeometry x="3760" y="240" width="520" height="400" as="geometry" />
        </mxCell>
        <mxCell id="L-U1fICnltMbJxQBlIye-131" value="&lt;h2&gt;&lt;b&gt;Platform Applications&lt;/b&gt;&lt;/h2&gt;" style="text;html=1;align=center;verticalAlign=middle;whiteSpace=wrap;rounded=0;fontColor=#4D4D4D;" parent="1" vertex="1">
          <mxGeometry x="3885" y="250" width="270" height="30" as="geometry" />
        </mxCell>
        <mxCell id="L-U1fICnltMbJxQBlIye-132" style="edgeStyle=orthogonalEdgeStyle;rounded=0;orthogonalLoop=1;jettySize=auto;html=1;entryX=0.25;entryY=0;entryDx=0;entryDy=0;exitX=0.25;exitY=1;exitDx=0;exitDy=0;startArrow=classic;startFill=1;" parent="1" source="L-U1fICnltMbJxQBlIye-133" target="L-U1fICnltMbJxQBlIye-134" edge="1">
          <mxGeometry relative="1" as="geometry" />
        </mxCell>
        <mxCell id="L-U1fICnltMbJxQBlIye-133" value="&lt;font style=&quot;line-height: 170%;&quot;&gt;&lt;font style=&quot;font-size: 18px; line-height: 170%;&quot;&gt;Platform FE Services&lt;/font&gt;&lt;br&gt;&lt;span&gt;&lt;font style=&quot;font-size: 16px; line-height: 170%;&quot;&gt;(Dealer Portal, OEM Portal &amp;amp; Secure Checkout)&lt;/font&gt;&lt;/span&gt;&lt;/font&gt;" style="rounded=0;whiteSpace=wrap;html=1;fillColor=light-dark(#9b5277, #ffadcd);strokeColor=#6F0000;fontColor=#ffffff;" parent="1" vertex="1">
          <mxGeometry x="3800" y="320" width="440" height="120" as="geometry" />
        </mxCell>
        <mxCell id="L-U1fICnltMbJxQBlIye-134" value="&lt;font style=&quot;line-height: 160%;&quot;&gt;&lt;font style=&quot;font-size: 18px; line-height: 160%;&quot;&gt;Platform BE Services&lt;/font&gt;&lt;br&gt;&lt;/font&gt;" style="rounded=0;whiteSpace=wrap;html=1;fillColor=#9B5277;strokeColor=#6F0000;fontColor=#ffffff;" parent="1" vertex="1">
          <mxGeometry x="3800" y="520" width="440" height="80" as="geometry" />
        </mxCell>
        <mxCell id="L-U1fICnltMbJxQBlIye-135" value="" style="rounded=0;whiteSpace=wrap;html=1;fillColor=#E6D0DE;strokeColor=none;fillStyle=auto;" parent="1" vertex="1">
          <mxGeometry x="3760" y="720" width="520" height="520" as="geometry" />
        </mxCell>
        <mxCell id="L-U1fICnltMbJxQBlIye-136" value="&lt;h2&gt;&lt;b&gt;Platform Integration&lt;/b&gt;&lt;/h2&gt;" style="text;html=1;align=center;verticalAlign=middle;whiteSpace=wrap;rounded=0;fontColor=#4D4D4D;" parent="1" vertex="1">
          <mxGeometry x="3885" y="730" width="270" height="30" as="geometry" />
        </mxCell>
        <mxCell id="L-U1fICnltMbJxQBlIye-137" value="&lt;font style=&quot;line-height: 160%;&quot;&gt;&lt;font style=&quot;font-size: 18px; line-height: 160%;&quot;&gt;Platform Integration Service&lt;/font&gt;&lt;br&gt;&lt;/font&gt;" style="rounded=0;whiteSpace=wrap;html=1;fillColor=#9B5277;strokeColor=#6F0000;fontColor=#ffffff;" parent="1" vertex="1">
          <mxGeometry x="3800" y="800" width="440" height="80" as="geometry" />
        </mxCell>
        <mxCell id="L-U1fICnltMbJxQBlIye-138" style="edgeStyle=orthogonalEdgeStyle;rounded=0;orthogonalLoop=1;jettySize=auto;html=1;entryX=0.151;entryY=0.988;entryDx=0;entryDy=0;entryPerimeter=0;exitX=0.151;exitY=0.004;exitDx=0;exitDy=0;exitPerimeter=0;startArrow=classic;startFill=1;" parent="1" edge="1">
          <mxGeometry relative="1" as="geometry">
            <mxPoint x="4128.4400000000005" y="960.1600000000002" as="sourcePoint" />
            <mxPoint x="4128.4400000000005" y="878.88" as="targetPoint" />
          </mxGeometry>
        </mxCell>
        <mxCell id="L-U1fICnltMbJxQBlIye-139" value="&lt;font style=&quot;line-height: 160%;&quot;&gt;&lt;font style=&quot;font-size: 18px; line-height: 160%;&quot;&gt;Platform Authorization Service&lt;/font&gt;&lt;br&gt;&lt;/font&gt;" style="rounded=0;whiteSpace=wrap;html=1;fillColor=#9B5277;strokeColor=#6F0000;fontColor=#ffffff;" parent="1" vertex="1">
          <mxGeometry x="3800" y="960" width="440" height="80" as="geometry" />
        </mxCell>
        <mxCell id="L-U1fICnltMbJxQBlIye-140" value="" style="rounded=0;whiteSpace=wrap;html=1;fillColor=light-dark(#e2edfd, #1d293b);strokeColor=none;fillStyle=auto;" parent="1" vertex="1">
          <mxGeometry x="4601" y="240" width="520" height="400" as="geometry" />
        </mxCell>
        <mxCell id="L-U1fICnltMbJxQBlIye-141" value="&lt;h2&gt;&lt;b&gt;Program Applications&lt;/b&gt;&lt;/h2&gt;" style="text;html=1;align=center;verticalAlign=middle;whiteSpace=wrap;rounded=0;fontColor=#4D4D4D;" parent="1" vertex="1">
          <mxGeometry x="4726" y="250" width="270" height="30" as="geometry" />
        </mxCell>
        <mxCell id="L-U1fICnltMbJxQBlIye-142" style="edgeStyle=orthogonalEdgeStyle;rounded=0;orthogonalLoop=1;jettySize=auto;html=1;entryX=0.773;entryY=-0.004;entryDx=0;entryDy=0;exitX=0.772;exitY=0.986;exitDx=0;exitDy=0;exitPerimeter=0;entryPerimeter=0;" parent="1" source="L-U1fICnltMbJxQBlIye-143" target="L-U1fICnltMbJxQBlIye-145" edge="1">
          <mxGeometry relative="1" as="geometry" />
        </mxCell>
        <mxCell id="L-U1fICnltMbJxQBlIye-143" value="&lt;font style=&quot;line-height: 170%;&quot;&gt;&lt;font style=&quot;font-size: 18px; line-height: 170%;&quot;&gt;Custom FE Services (IFrame Embedable)&lt;/font&gt;&lt;br&gt;&lt;span&gt;&lt;font style=&quot;font-size: 16px; line-height: 170%;&quot;&gt;(Dealer Portal, OEM Portal &amp;amp; Secure Checkout)&lt;/font&gt;&lt;/span&gt;&lt;/font&gt;" style="rounded=0;whiteSpace=wrap;html=1;fillColor=light-dark(#4b77d0, #7dbeff);strokeColor=#006EAF;fontColor=#ffffff;" parent="1" vertex="1">
          <mxGeometry x="4640" y="320" width="440" height="120" as="geometry" />
        </mxCell>
        <mxCell id="L-U1fICnltMbJxQBlIye-144" style="edgeStyle=orthogonalEdgeStyle;rounded=0;orthogonalLoop=1;jettySize=auto;html=1;entryX=0.75;entryY=1;entryDx=0;entryDy=0;exitX=0.25;exitY=1;exitDx=0;exitDy=0;startArrow=classic;startFill=1;" parent="1" source="L-U1fICnltMbJxQBlIye-145" target="L-U1fICnltMbJxQBlIye-139" edge="1">
          <mxGeometry relative="1" as="geometry">
            <Array as="points">
              <mxPoint x="4751" y="680" />
              <mxPoint x="4440" y="680" />
              <mxPoint x="4440" y="1080" />
              <mxPoint x="4130" y="1080" />
            </Array>
          </mxGeometry>
        </mxCell>
        <mxCell id="L-U1fICnltMbJxQBlIye-145" value="&lt;font style=&quot;line-height: 160%;&quot;&gt;&lt;font style=&quot;font-size: 18px; line-height: 160%;&quot;&gt;Custom BE Services&lt;/font&gt;&lt;br&gt;&lt;/font&gt;" style="rounded=0;whiteSpace=wrap;html=1;fillColor=#4B77D0;strokeColor=#006EAF;fontColor=#ffffff;" parent="1" vertex="1">
          <mxGeometry x="4641" y="520" width="440" height="80" as="geometry" />
        </mxCell>
        <mxCell id="L-U1fICnltMbJxQBlIye-146" value="" style="rounded=0;whiteSpace=wrap;html=1;fillColor=light-dark(#e4eefb, #1d293b);strokeColor=none;fillStyle=auto;" parent="1" vertex="1">
          <mxGeometry x="4601" y="720" width="520" height="400" as="geometry" />
        </mxCell>
        <mxCell id="L-U1fICnltMbJxQBlIye-147" value="&lt;h2&gt;&lt;b&gt;Program Integration&lt;/b&gt;&lt;/h2&gt;" style="text;html=1;align=center;verticalAlign=middle;whiteSpace=wrap;rounded=0;fontColor=#4D4D4D;" parent="1" vertex="1">
          <mxGeometry x="4726" y="730" width="270" height="30" as="geometry" />
        </mxCell>
        <mxCell id="L-U1fICnltMbJxQBlIye-148" value="&lt;font style=&quot;line-height: 160%;&quot;&gt;&lt;font style=&quot;font-size: 18px; line-height: 160%;&quot;&gt;Program Integration Service&lt;/font&gt;&lt;br&gt;&lt;/font&gt;" style="rounded=0;whiteSpace=wrap;html=1;fillColor=#4B77D0;strokeColor=#006EAF;fontColor=#ffffff;" parent="1" vertex="1">
          <mxGeometry x="4641" y="800" width="440" height="80" as="geometry" />
        </mxCell>
        <mxCell id="L-U1fICnltMbJxQBlIye-149" value="" style="rounded=0;whiteSpace=wrap;html=1;fillColor=light-dark(#fdf3e8, #36210a);strokeColor=none;fillStyle=auto;" parent="1" vertex="1">
          <mxGeometry x="5440" y="240" width="520" height="400" as="geometry" />
        </mxCell>
        <mxCell id="L-U1fICnltMbJxQBlIye-150" value="&lt;h2&gt;&lt;b&gt;GM Applications&lt;/b&gt;&lt;/h2&gt;" style="text;html=1;align=center;verticalAlign=middle;whiteSpace=wrap;rounded=0;fontColor=#4D4D4D;" parent="1" vertex="1">
          <mxGeometry x="5565" y="250" width="270" height="30" as="geometry" />
        </mxCell>
        <mxCell id="L-U1fICnltMbJxQBlIye-151" value="&lt;font style=&quot;line-height: 160%;&quot;&gt;&lt;font style=&quot;font-size: 18px; line-height: 160%;&quot;&gt;GM BE Service&lt;/font&gt;&lt;br&gt;&lt;/font&gt;" style="rounded=0;whiteSpace=wrap;html=1;fillColor=light-dark(#f9d5ae, #36210a);strokeColor=#d79b00;" parent="1" vertex="1">
          <mxGeometry x="5480" y="320" width="440" height="80" as="geometry" />
        </mxCell>
        <mxCell id="L-U1fICnltMbJxQBlIye-153" value="3. IFrame Access Validation (Domain)" style="text;html=1;align=center;verticalAlign=middle;whiteSpace=wrap;rounded=1;fillColor=#647687;fontColor=#ffffff;strokeColor=none;" parent="1" vertex="1">
          <mxGeometry x="3780" y="460" width="120" height="40" as="geometry" />
        </mxCell>
        <mxCell id="L-U1fICnltMbJxQBlIye-154" value="4. Get Context ID" style="text;html=1;align=center;verticalAlign=middle;whiteSpace=wrap;rounded=1;fillColor=#647687;fontColor=#ffffff;strokeColor=none;" parent="1" vertex="1">
          <mxGeometry x="3920" y="460" width="120" height="40" as="geometry" />
        </mxCell>
        <mxCell id="L-U1fICnltMbJxQBlIye-155" value="6. Request with&amp;nbsp;&lt;span style=&quot;background-color: transparent; color: light-dark(rgb(255, 255, 255), rgb(18, 18, 18));&quot;&gt;ContextID&lt;/span&gt;" style="text;html=1;align=center;verticalAlign=middle;whiteSpace=wrap;rounded=1;fillColor=#647687;fontColor=#ffffff;strokeColor=none;" parent="1" vertex="1">
          <mxGeometry x="4920" y="460" width="120" height="40" as="geometry" />
        </mxCell>
        <mxCell id="L-U1fICnltMbJxQBlIye-156" value="7. Authorized request with ContextID" style="text;html=1;align=center;verticalAlign=middle;whiteSpace=wrap;rounded=1;fillColor=#647687;fontColor=#ffffff;strokeColor=none;" parent="1" vertex="1">
          <mxGeometry x="4686" y="660" width="120" height="40" as="geometry" />
        </mxCell>
        <mxCell id="L-U1fICnltMbJxQBlIye-157" value="8. Verify Authorization" style="text;html=1;align=center;verticalAlign=middle;whiteSpace=wrap;rounded=1;fillColor=#647687;fontColor=#ffffff;strokeColor=none;" parent="1" vertex="1">
          <mxGeometry x="4380" y="950" width="120" height="40" as="geometry" />
        </mxCell>
        <mxCell id="L-U1fICnltMbJxQBlIye-158" value="9. Authorize API calls" style="text;html=1;align=center;verticalAlign=middle;whiteSpace=wrap;rounded=1;fillColor=#647687;fontColor=#ffffff;strokeColor=none;" parent="1" vertex="1">
          <mxGeometry x="4071" y="899.84" width="120" height="40" as="geometry" />
        </mxCell>
        <mxCell id="L-U1fICnltMbJxQBlIye-159" value="" style="group" parent="1" vertex="1" connectable="0">
          <mxGeometry x="4380" y="330" width="120" height="40" as="geometry" />
        </mxCell>
        <mxCell id="L-U1fICnltMbJxQBlIye-160" style="edgeStyle=orthogonalEdgeStyle;rounded=0;orthogonalLoop=1;jettySize=auto;html=1;entryX=0;entryY=0.25;entryDx=0;entryDy=0;exitX=1;exitY=0.25;exitDx=0;exitDy=0;" parent="L-U1fICnltMbJxQBlIye-159" source="L-U1fICnltMbJxQBlIye-133" target="L-U1fICnltMbJxQBlIye-143" edge="1">
          <mxGeometry relative="1" as="geometry" />
        </mxCell>
        <mxCell id="L-U1fICnltMbJxQBlIye-161" value="1. Embed IFrame" style="text;html=1;align=center;verticalAlign=middle;whiteSpace=wrap;rounded=1;fillColor=#647687;fontColor=#ffffff;strokeColor=none;" parent="L-U1fICnltMbJxQBlIye-159" vertex="1">
          <mxGeometry width="120" height="40" as="geometry" />
        </mxCell>
        <mxCell id="L-U1fICnltMbJxQBlIye-162" value="" style="group" parent="1" vertex="1" connectable="0">
          <mxGeometry x="4130" y="250" width="620" height="60" as="geometry" />
        </mxCell>
        <mxCell id="L-U1fICnltMbJxQBlIye-163" style="edgeStyle=orthogonalEdgeStyle;rounded=0;orthogonalLoop=1;jettySize=auto;html=1;entryX=0.25;entryY=0;entryDx=0;entryDy=0;exitX=0.75;exitY=0;exitDx=0;exitDy=0;endArrow=none;startFill=0;" parent="L-U1fICnltMbJxQBlIye-162" source="L-U1fICnltMbJxQBlIye-133" target="L-U1fICnltMbJxQBlIye-143" edge="1">
          <mxGeometry relative="1" as="geometry">
            <Array as="points">
              <mxPoint y="30" />
              <mxPoint x="620" y="30" />
            </Array>
          </mxGeometry>
        </mxCell>
        <mxCell id="L-U1fICnltMbJxQBlIye-164" value="&lt;b&gt;NO DATA EXCHANGE&lt;/b&gt;" style="text;html=1;align=center;verticalAlign=middle;whiteSpace=wrap;rounded=1;fillColor=#647687;fontColor=#ffffff;strokeColor=none;" parent="L-U1fICnltMbJxQBlIye-162" vertex="1">
          <mxGeometry x="250" width="120" height="60" as="geometry" />
        </mxCell>
        <mxCell id="L-U1fICnltMbJxQBlIye-165" value="" style="group" parent="1" vertex="1" connectable="0">
          <mxGeometry x="4380" y="390" width="120" height="40" as="geometry" />
        </mxCell>
        <mxCell id="L-U1fICnltMbJxQBlIye-166" style="edgeStyle=orthogonalEdgeStyle;rounded=0;orthogonalLoop=1;jettySize=auto;html=1;entryX=0;entryY=0.75;entryDx=0;entryDy=0;exitX=1;exitY=0.75;exitDx=0;exitDy=0;startArrow=classic;startFill=1;endArrow=none;" parent="L-U1fICnltMbJxQBlIye-165" source="L-U1fICnltMbJxQBlIye-133" target="L-U1fICnltMbJxQBlIye-143" edge="1">
          <mxGeometry relative="1" as="geometry" />
        </mxCell>
        <mxCell id="L-U1fICnltMbJxQBlIye-167" value="2.&lt;b&gt; LOADED&lt;/b&gt;" style="text;html=1;align=center;verticalAlign=middle;whiteSpace=wrap;rounded=1;fillColor=#647687;fontColor=#ffffff;strokeColor=none;" parent="L-U1fICnltMbJxQBlIye-165" vertex="1">
          <mxGeometry width="120" height="40" as="geometry" />
        </mxCell>
        <mxCell id="L-U1fICnltMbJxQBlIye-168" value="" style="group" parent="1" vertex="1" connectable="0">
          <mxGeometry x="4191" y="450" width="499" height="40" as="geometry" />
        </mxCell>
        <mxCell id="L-U1fICnltMbJxQBlIye-169" style="edgeStyle=orthogonalEdgeStyle;rounded=0;orthogonalLoop=1;jettySize=auto;html=1;entryX=0.114;entryY=1;entryDx=0;entryDy=0;entryPerimeter=0;exitX=0.889;exitY=1.006;exitDx=0;exitDy=0;exitPerimeter=0;" parent="L-U1fICnltMbJxQBlIye-168" source="L-U1fICnltMbJxQBlIye-133" target="L-U1fICnltMbJxQBlIye-143" edge="1">
          <mxGeometry relative="1" as="geometry">
            <Array as="points">
              <mxPoint y="20" />
              <mxPoint x="499" y="20" />
            </Array>
          </mxGeometry>
        </mxCell>
        <mxCell id="L-U1fICnltMbJxQBlIye-170" value="5.&lt;b&gt;INIT_DATA with&amp;nbsp;&lt;/b&gt;&lt;span style=&quot;background-color: transparent; color: light-dark(rgb(255, 255, 255), rgb(18, 18, 18));&quot;&gt;ContextID&lt;/span&gt;" style="text;html=1;align=center;verticalAlign=middle;whiteSpace=wrap;rounded=1;fillColor=#647687;fontColor=#ffffff;strokeColor=none;" parent="L-U1fICnltMbJxQBlIye-168" vertex="1">
          <mxGeometry x="189" width="120" height="40" as="geometry" />
        </mxCell>
        <mxCell id="L-U1fICnltMbJxQBlIye-171" value="" style="group" parent="1" vertex="1" connectable="0">
          <mxGeometry x="4130" y="520" width="620" height="60" as="geometry" />
        </mxCell>
        <mxCell id="L-U1fICnltMbJxQBlIye-172" style="edgeStyle=orthogonalEdgeStyle;rounded=0;orthogonalLoop=1;jettySize=auto;html=1;entryX=0.75;entryY=1;entryDx=0;entryDy=0;exitX=0.25;exitY=1;exitDx=0;exitDy=0;" parent="L-U1fICnltMbJxQBlIye-171" source="L-U1fICnltMbJxQBlIye-143" target="L-U1fICnltMbJxQBlIye-133" edge="1">
          <mxGeometry relative="1" as="geometry">
            <Array as="points">
              <mxPoint x="620" y="30" />
              <mxPoint y="30" />
            </Array>
          </mxGeometry>
        </mxCell>
        <mxCell id="L-U1fICnltMbJxQBlIye-173" value="12. &lt;b&gt;Status Events&lt;br&gt;(LOADED, UPDATED etc)&lt;/b&gt;" style="text;html=1;align=center;verticalAlign=middle;whiteSpace=wrap;rounded=1;fillColor=#647687;fontColor=#ffffff;strokeColor=none;" parent="L-U1fICnltMbJxQBlIye-171" vertex="1">
          <mxGeometry x="250" width="120" height="60" as="geometry" />
        </mxCell>
        <mxCell id="L-U1fICnltMbJxQBlIye-174" style="edgeStyle=orthogonalEdgeStyle;rounded=0;orthogonalLoop=1;jettySize=auto;html=1;entryX=0.143;entryY=0.002;entryDx=0;entryDy=0;exitX=0.143;exitY=1.002;exitDx=0;exitDy=0;exitPerimeter=0;entryPerimeter=0;startArrow=classic;startFill=1;" parent="1" edge="1">
          <mxGeometry relative="1" as="geometry">
            <mxPoint x="4124.92" y="600.0000000000001" as="sourcePoint" />
            <mxPoint x="4124.92" y="800.0000000000001" as="targetPoint" />
          </mxGeometry>
        </mxCell>
        <mxCell id="L-U1fICnltMbJxQBlIye-175" value="10. Data Exchange" style="text;html=1;align=center;verticalAlign=middle;whiteSpace=wrap;rounded=1;fillColor=#647687;fontColor=#ffffff;strokeColor=none;" parent="1" vertex="1">
          <mxGeometry x="4063" y="659.84" width="120" height="40" as="geometry" />
        </mxCell>
        <mxCell id="L-U1fICnltMbJxQBlIye-176" style="edgeStyle=orthogonalEdgeStyle;rounded=0;orthogonalLoop=1;jettySize=auto;html=1;entryX=0.75;entryY=0;entryDx=0;entryDy=0;exitX=0.75;exitY=1;exitDx=0;exitDy=0;" parent="1" source="L-U1fICnltMbJxQBlIye-145" target="L-U1fICnltMbJxQBlIye-148" edge="1">
          <mxGeometry relative="1" as="geometry" />
        </mxCell>
        <mxCell id="L-U1fICnltMbJxQBlIye-177" style="edgeStyle=orthogonalEdgeStyle;rounded=0;orthogonalLoop=1;jettySize=auto;html=1;entryX=0.25;entryY=1;entryDx=0;entryDy=0;exitX=0.75;exitY=1;exitDx=0;exitDy=0;startArrow=classic;startFill=1;" parent="1" source="L-U1fICnltMbJxQBlIye-148" target="L-U1fICnltMbJxQBlIye-151" edge="1">
          <mxGeometry relative="1" as="geometry">
            <Array as="points">
              <mxPoint x="4971" y="920" />
              <mxPoint x="5590" y="920" />
            </Array>
          </mxGeometry>
        </mxCell>
        <mxCell id="L-U1fICnltMbJxQBlIye-178" value="11. Client Data Exchange" style="text;html=1;align=center;verticalAlign=middle;whiteSpace=wrap;rounded=1;fillColor=#647687;fontColor=#ffffff;strokeColor=none;" parent="1" vertex="1">
          <mxGeometry x="5230" y="900" width="120" height="40" as="geometry" />
        </mxCell>
        <mxCell id="L-U1fICnltMbJxQBlIye-179" style="edgeStyle=orthogonalEdgeStyle;rounded=0;orthogonalLoop=1;jettySize=auto;html=1;entryX=0.143;entryY=0.002;entryDx=0;entryDy=0;exitX=0.143;exitY=1.002;exitDx=0;exitDy=0;exitPerimeter=0;entryPerimeter=0;startArrow=classic;startFill=1;" parent="1" edge="1">
          <mxGeometry relative="1" as="geometry">
            <mxPoint x="3911.92" y="600.0000000000001" as="sourcePoint" />
            <mxPoint x="3911.92" y="800.0000000000001" as="targetPoint" />
          </mxGeometry>
        </mxCell>
        <mxCell id="L-U1fICnltMbJxQBlIye-180" value="4.1. Generate Context ID" style="text;html=1;align=center;verticalAlign=middle;whiteSpace=wrap;rounded=1;fillColor=#647687;fontColor=#ffffff;strokeColor=none;" parent="1" vertex="1">
          <mxGeometry x="3850" y="659.84" width="120" height="40" as="geometry" />
        </mxCell>
        <mxCell id="L-U1fICnltMbJxQBlIye-181" style="edgeStyle=orthogonalEdgeStyle;rounded=0;orthogonalLoop=1;jettySize=auto;html=1;entryX=0.151;entryY=0.988;entryDx=0;entryDy=0;entryPerimeter=0;exitX=0.151;exitY=0.004;exitDx=0;exitDy=0;exitPerimeter=0;startArrow=classic;startFill=1;" parent="1" edge="1">
          <mxGeometry relative="1" as="geometry">
            <mxPoint x="3913.4400000000005" y="961.2800000000002" as="sourcePoint" />
            <mxPoint x="3913.4400000000005" y="880" as="targetPoint" />
          </mxGeometry>
        </mxCell>
        <mxCell id="L-U1fICnltMbJxQBlIye-182" value="4.2. Generate ContextID" style="text;html=1;align=center;verticalAlign=middle;whiteSpace=wrap;rounded=1;fillColor=#647687;fontColor=#ffffff;strokeColor=none;" parent="1" vertex="1">
          <mxGeometry x="3856" y="900.96" width="120" height="40" as="geometry" />
        </mxCell>
        <mxCell id="K4QezGN7zCRzWAzwF-Ke-1" value="" style="rounded=0;whiteSpace=wrap;html=1;fillColor=#DAE7D9;strokeColor=#82b366;fillStyle=auto;" vertex="1" parent="1">
          <mxGeometry x="-140" y="3270" width="520" height="400" as="geometry" />
        </mxCell>
        <mxCell id="K4QezGN7zCRzWAzwF-Ke-27" style="edgeStyle=orthogonalEdgeStyle;rounded=0;orthogonalLoop=1;jettySize=auto;html=1;entryX=0.5;entryY=0;entryDx=0;entryDy=0;exitX=0.137;exitY=0.991;exitDx=0;exitDy=0;exitPerimeter=0;startArrow=classic;startFill=1;" edge="1" parent="1" source="K4QezGN7zCRzWAzwF-Ke-2" target="K4QezGN7zCRzWAzwF-Ke-5">
          <mxGeometry relative="1" as="geometry">
            <Array as="points">
              <mxPoint x="-40" y="3472" />
            </Array>
          </mxGeometry>
        </mxCell>
        <mxCell id="K4QezGN7zCRzWAzwF-Ke-29" style="edgeStyle=orthogonalEdgeStyle;rounded=0;orthogonalLoop=1;jettySize=auto;html=1;entryX=0.5;entryY=0;entryDx=0;entryDy=0;startArrow=classic;startFill=1;exitX=0.433;exitY=0.996;exitDx=0;exitDy=0;exitPerimeter=0;" edge="1" parent="1" source="K4QezGN7zCRzWAzwF-Ke-2" target="K4QezGN7zCRzWAzwF-Ke-6">
          <mxGeometry relative="1" as="geometry" />
        </mxCell>
        <mxCell id="K4QezGN7zCRzWAzwF-Ke-2" value="&lt;font style=&quot;line-height: 170%;&quot;&gt;&lt;font style=&quot;font-size: 18px; line-height: 170%;&quot;&gt;Platform FE Services&lt;/font&gt;&lt;br&gt;&lt;span&gt;&lt;font style=&quot;font-size: 16px; line-height: 170%;&quot;&gt;(Dealer Portal, OEM Portal &amp;amp; Secure Checkout)&lt;/font&gt;&lt;/span&gt;&lt;/font&gt;" style="rounded=0;whiteSpace=wrap;html=1;fillColor=#BBEAB8;strokeColor=#82b366;" vertex="1" parent="1">
          <mxGeometry x="-100" y="3350" width="440" height="120" as="geometry" />
        </mxCell>
        <mxCell id="K4QezGN7zCRzWAzwF-Ke-3" value="" style="rounded=0;whiteSpace=wrap;html=1;fillColor=light-dark(#e2edfd, #1d293b);strokeColor=#6c8ebf;fillStyle=auto;" vertex="1" parent="1">
          <mxGeometry x="701" y="3270" width="520" height="400" as="geometry" />
        </mxCell>
        <mxCell id="K4QezGN7zCRzWAzwF-Ke-4" value="&lt;font style=&quot;line-height: 170%;&quot;&gt;&lt;font style=&quot;font-size: 18px; line-height: 170%;&quot;&gt;Custom FE Services (IFrame Embedable)&lt;/font&gt;&lt;br&gt;&lt;span&gt;&lt;font style=&quot;font-size: 16px; line-height: 170%;&quot;&gt;(Dealer Portal, OEM Portal &amp;amp; Secure Checkout)&lt;/font&gt;&lt;/span&gt;&lt;/font&gt;" style="rounded=0;whiteSpace=wrap;html=1;fillColor=#99CCFF;strokeColor=#6c8ebf;" vertex="1" parent="1">
          <mxGeometry x="740" y="3350" width="440" height="120" as="geometry" />
        </mxCell>
        <mxCell id="K4QezGN7zCRzWAzwF-Ke-5" value="3. IFrame Domain Whitelisting Check" style="text;html=1;align=center;verticalAlign=middle;whiteSpace=wrap;rounded=1;fillColor=#647687;fontColor=#ffffff;strokeColor=none;" vertex="1" parent="1">
          <mxGeometry x="-100" y="3490" width="120" height="40" as="geometry" />
        </mxCell>
        <mxCell id="K4QezGN7zCRzWAzwF-Ke-6" value="4. Generate SAML&amp;nbsp; Token with Context ID" style="text;html=1;align=center;verticalAlign=middle;whiteSpace=wrap;rounded=1;fillColor=#647687;fontColor=#ffffff;strokeColor=none;" vertex="1" parent="1">
          <mxGeometry x="30" y="3491" width="120" height="40" as="geometry" />
        </mxCell>
        <mxCell id="K4QezGN7zCRzWAzwF-Ke-22" value="&lt;h2&gt;&lt;b&gt;Platform Applications&lt;/b&gt;&lt;/h2&gt;" style="text;html=1;align=center;verticalAlign=middle;whiteSpace=wrap;rounded=0;fontColor=#4D4D4D;" vertex="1" parent="1">
          <mxGeometry x="-15.5" y="3270" width="270" height="30" as="geometry" />
        </mxCell>
        <mxCell id="K4QezGN7zCRzWAzwF-Ke-23" value="&lt;h2&gt;&lt;b&gt;Program Applications&lt;/b&gt;&lt;/h2&gt;" style="text;html=1;align=center;verticalAlign=middle;whiteSpace=wrap;rounded=0;fontColor=#4D4D4D;" vertex="1" parent="1">
          <mxGeometry x="825.5" y="3270" width="270" height="30" as="geometry" />
        </mxCell>
        <mxCell id="K4QezGN7zCRzWAzwF-Ke-11" style="edgeStyle=orthogonalEdgeStyle;rounded=0;orthogonalLoop=1;jettySize=auto;html=1;entryX=0.25;entryY=0;entryDx=0;entryDy=0;exitX=0.75;exitY=0;exitDx=0;exitDy=0;endArrow=none;startFill=0;dashed=1;dashPattern=12 12;" edge="1" parent="1" source="K4QezGN7zCRzWAzwF-Ke-2" target="K4QezGN7zCRzWAzwF-Ke-4">
          <mxGeometry relative="1" as="geometry">
            <Array as="points">
              <mxPoint x="230" y="3310" />
              <mxPoint x="850" y="3310" />
            </Array>
          </mxGeometry>
        </mxCell>
        <mxCell id="K4QezGN7zCRzWAzwF-Ke-12" value="&lt;b&gt;NO DATA EXCHANGE&lt;/b&gt;" style="text;html=1;align=center;verticalAlign=middle;whiteSpace=wrap;rounded=1;fillColor=#647687;fontColor=#ffffff;strokeColor=none;" vertex="1" parent="1">
          <mxGeometry x="480" y="3280" width="120" height="60" as="geometry" />
        </mxCell>
        <mxCell id="K4QezGN7zCRzWAzwF-Ke-14" style="edgeStyle=orthogonalEdgeStyle;rounded=0;orthogonalLoop=1;jettySize=auto;html=1;entryX=0;entryY=0.75;entryDx=0;entryDy=0;exitX=1;exitY=0.75;exitDx=0;exitDy=0;startArrow=classic;startFill=1;endArrow=none;dashed=1;" edge="1" parent="1" source="K4QezGN7zCRzWAzwF-Ke-2" target="K4QezGN7zCRzWAzwF-Ke-4">
          <mxGeometry relative="1" as="geometry" />
        </mxCell>
        <mxCell id="K4QezGN7zCRzWAzwF-Ke-15" value="2.&lt;b&gt; LOADED&lt;/b&gt;" style="text;html=1;align=center;verticalAlign=middle;whiteSpace=wrap;rounded=1;fillColor=#647687;fontColor=#ffffff;strokeColor=none;" vertex="1" parent="1">
          <mxGeometry x="480" y="3420" width="120" height="40" as="geometry" />
        </mxCell>
        <mxCell id="K4QezGN7zCRzWAzwF-Ke-17" style="edgeStyle=orthogonalEdgeStyle;rounded=0;orthogonalLoop=1;jettySize=auto;html=1;entryX=0.114;entryY=1;entryDx=0;entryDy=0;entryPerimeter=0;exitX=0.889;exitY=1.006;exitDx=0;exitDy=0;exitPerimeter=0;dashed=1;" edge="1" parent="1" source="K4QezGN7zCRzWAzwF-Ke-2" target="K4QezGN7zCRzWAzwF-Ke-4">
          <mxGeometry relative="1" as="geometry">
            <Array as="points">
              <mxPoint x="291" y="3500" />
              <mxPoint x="790" y="3500" />
            </Array>
          </mxGeometry>
        </mxCell>
        <mxCell id="K4QezGN7zCRzWAzwF-Ke-18" value="5.&lt;b&gt;INIT_DATA with&amp;nbsp;&lt;/b&gt;&lt;span style=&quot;background-color: transparent; color: light-dark(rgb(255, 255, 255), rgb(18, 18, 18));&quot;&gt;SAML Token&lt;/span&gt;" style="text;html=1;align=center;verticalAlign=middle;whiteSpace=wrap;rounded=1;fillColor=#647687;fontColor=#ffffff;strokeColor=none;" vertex="1" parent="1">
          <mxGeometry x="480" y="3480" width="120" height="40" as="geometry" />
        </mxCell>
        <mxCell id="K4QezGN7zCRzWAzwF-Ke-20" style="edgeStyle=orthogonalEdgeStyle;rounded=0;orthogonalLoop=1;jettySize=auto;html=1;entryX=0.75;entryY=1;entryDx=0;entryDy=0;exitX=0.25;exitY=1;exitDx=0;exitDy=0;dashed=1;" edge="1" parent="1" source="K4QezGN7zCRzWAzwF-Ke-4" target="K4QezGN7zCRzWAzwF-Ke-2">
          <mxGeometry relative="1" as="geometry">
            <Array as="points">
              <mxPoint x="850" y="3580" />
              <mxPoint x="230" y="3580" />
            </Array>
          </mxGeometry>
        </mxCell>
        <mxCell id="K4QezGN7zCRzWAzwF-Ke-21" value="12. &lt;b&gt;Status Events&lt;br&gt;(LOADED, UPDATED etc)&lt;/b&gt;" style="text;html=1;align=center;verticalAlign=middle;whiteSpace=wrap;rounded=1;fillColor=#647687;fontColor=#ffffff;strokeColor=none;" vertex="1" parent="1">
          <mxGeometry x="480" y="3550" width="120" height="60" as="geometry" />
        </mxCell>
        <mxCell id="K4QezGN7zCRzWAzwF-Ke-8" style="edgeStyle=orthogonalEdgeStyle;rounded=0;orthogonalLoop=1;jettySize=auto;html=1;entryX=0;entryY=0.25;entryDx=0;entryDy=0;exitX=1;exitY=0.25;exitDx=0;exitDy=0;" edge="1" parent="1" source="K4QezGN7zCRzWAzwF-Ke-2" target="K4QezGN7zCRzWAzwF-Ke-4">
          <mxGeometry relative="1" as="geometry" />
        </mxCell>
        <mxCell id="K4QezGN7zCRzWAzwF-Ke-9" value="1. Embed IFrame" style="text;html=1;align=center;verticalAlign=middle;whiteSpace=wrap;rounded=1;fillColor=#647687;fontColor=#ffffff;strokeColor=none;" vertex="1" parent="1">
          <mxGeometry x="480" y="3360" width="120" height="40" as="geometry" />
        </mxCell>
        <mxCell id="K4QezGN7zCRzWAzwF-Ke-30" value="" style="rounded=0;whiteSpace=wrap;html=1;fillColor=#f5f5f5;fontColor=#333333;strokeColor=none;" vertex="1" parent="1">
          <mxGeometry x="3650" y="1610" width="600" height="550" as="geometry" />
        </mxCell>
        <mxCell id="K4QezGN7zCRzWAzwF-Ke-31" value="" style="rounded=0;whiteSpace=wrap;html=1;fillColor=#f5f5f5;fontColor=#333333;strokeColor=none;" vertex="1" parent="1">
          <mxGeometry x="4490" y="1610" width="600" height="550" as="geometry" />
        </mxCell>
        <mxCell id="K4QezGN7zCRzWAzwF-Ke-32" value="&lt;h1&gt;&lt;b&gt;AEC Platforms&lt;/b&gt;&lt;/h1&gt;" style="text;html=1;align=center;verticalAlign=middle;whiteSpace=wrap;rounded=0;fontColor=#4D4D4D;" vertex="1" parent="1">
          <mxGeometry x="3815" y="1620" width="270" height="30" as="geometry" />
        </mxCell>
        <mxCell id="K4QezGN7zCRzWAzwF-Ke-33" value="&lt;h1&gt;&lt;b&gt;OEM/SI Owned Modules&lt;/b&gt;&lt;/h1&gt;" style="text;html=1;align=center;verticalAlign=middle;whiteSpace=wrap;rounded=0;fontColor=#4D4D4D;" vertex="1" parent="1">
          <mxGeometry x="4643" y="1620" width="294" height="30" as="geometry" />
        </mxCell>
        <mxCell id="K4QezGN7zCRzWAzwF-Ke-34" value="" style="rounded=0;whiteSpace=wrap;html=1;fillColor=#E6D0DE;strokeColor=none;fillStyle=auto;" vertex="1" parent="1">
          <mxGeometry x="3690" y="1690" width="520" height="400" as="geometry" />
        </mxCell>
        <mxCell id="K4QezGN7zCRzWAzwF-Ke-35" value="&lt;h2&gt;&lt;b&gt;Platform Applications&lt;/b&gt;&lt;/h2&gt;" style="text;html=1;align=center;verticalAlign=middle;whiteSpace=wrap;rounded=0;fontColor=#4D4D4D;" vertex="1" parent="1">
          <mxGeometry x="3815" y="1700" width="270" height="30" as="geometry" />
        </mxCell>
        <mxCell id="K4QezGN7zCRzWAzwF-Ke-36" value="&lt;font style=&quot;line-height: 170%;&quot;&gt;&lt;font style=&quot;font-size: 18px; line-height: 170%;&quot;&gt;Platform FE Services&lt;/font&gt;&lt;br&gt;&lt;span&gt;&lt;font style=&quot;font-size: 16px; line-height: 170%;&quot;&gt;(Dealer Portal, OEM Portal &amp;amp; Secure Checkout)&lt;/font&gt;&lt;/span&gt;&lt;/font&gt;" style="rounded=0;whiteSpace=wrap;html=1;fillColor=light-dark(#9b5277, #ffadcd);strokeColor=#6F0000;fontColor=#ffffff;" vertex="1" parent="1">
          <mxGeometry x="3730" y="1770" width="440" height="120" as="geometry" />
        </mxCell>
        <mxCell id="K4QezGN7zCRzWAzwF-Ke-37" value="" style="rounded=0;whiteSpace=wrap;html=1;fillColor=light-dark(#e2edfd, #1d293b);strokeColor=none;fillStyle=auto;" vertex="1" parent="1">
          <mxGeometry x="4531" y="1690" width="520" height="400" as="geometry" />
        </mxCell>
        <mxCell id="K4QezGN7zCRzWAzwF-Ke-38" value="&lt;h2&gt;&lt;b&gt;Program Applications&lt;/b&gt;&lt;/h2&gt;" style="text;html=1;align=center;verticalAlign=middle;whiteSpace=wrap;rounded=0;fontColor=#4D4D4D;" vertex="1" parent="1">
          <mxGeometry x="4656" y="1700" width="270" height="30" as="geometry" />
        </mxCell>
        <mxCell id="K4QezGN7zCRzWAzwF-Ke-39" value="&lt;font style=&quot;line-height: 170%;&quot;&gt;&lt;font style=&quot;font-size: 18px; line-height: 170%;&quot;&gt;Custom FE Services (IFrame Embedable)&lt;/font&gt;&lt;br&gt;&lt;span&gt;&lt;font style=&quot;font-size: 16px; line-height: 170%;&quot;&gt;(Dealer Portal, OEM Portal &amp;amp; Secure Checkout)&lt;/font&gt;&lt;/span&gt;&lt;/font&gt;" style="rounded=0;whiteSpace=wrap;html=1;fillColor=light-dark(#4b77d0, #7dbeff);strokeColor=#006EAF;fontColor=#ffffff;" vertex="1" parent="1">
          <mxGeometry x="4570" y="1770" width="440" height="120" as="geometry" />
        </mxCell>
        <mxCell id="K4QezGN7zCRzWAzwF-Ke-40" value="3. IFrame Domain Whitelisting Validation" style="text;html=1;align=center;verticalAlign=middle;whiteSpace=wrap;rounded=1;fillColor=#647687;fontColor=#ffffff;strokeColor=none;" vertex="1" parent="1">
          <mxGeometry x="3730" y="1910" width="120" height="40" as="geometry" />
        </mxCell>
        <mxCell id="K4QezGN7zCRzWAzwF-Ke-41" value="4. Get SAML Token with Context ID" style="text;html=1;align=center;verticalAlign=middle;whiteSpace=wrap;rounded=1;fillColor=#647687;fontColor=#ffffff;strokeColor=none;" vertex="1" parent="1">
          <mxGeometry x="3856" y="1910" width="120" height="40" as="geometry" />
        </mxCell>
        <mxCell id="K4QezGN7zCRzWAzwF-Ke-46" style="edgeStyle=orthogonalEdgeStyle;rounded=0;orthogonalLoop=1;jettySize=auto;html=1;entryX=0.25;entryY=0;entryDx=0;entryDy=0;exitX=0.75;exitY=0;exitDx=0;exitDy=0;endArrow=none;startFill=0;dashed=1;dashPattern=12 12;" edge="1" parent="1" source="K4QezGN7zCRzWAzwF-Ke-36" target="K4QezGN7zCRzWAzwF-Ke-39">
          <mxGeometry relative="1" as="geometry">
            <Array as="points">
              <mxPoint x="4060" y="1730" />
              <mxPoint x="4680" y="1730" />
            </Array>
          </mxGeometry>
        </mxCell>
        <mxCell id="K4QezGN7zCRzWAzwF-Ke-47" value="&lt;b&gt;NO DATA EXCHANGE&lt;/b&gt;" style="text;html=1;align=center;verticalAlign=middle;whiteSpace=wrap;rounded=1;fillColor=#647687;fontColor=#ffffff;strokeColor=none;" vertex="1" parent="1">
          <mxGeometry x="4310" y="1700" width="120" height="60" as="geometry" />
        </mxCell>
        <mxCell id="K4QezGN7zCRzWAzwF-Ke-43" style="edgeStyle=orthogonalEdgeStyle;rounded=0;orthogonalLoop=1;jettySize=auto;html=1;entryX=0;entryY=0.25;entryDx=0;entryDy=0;exitX=1;exitY=0.25;exitDx=0;exitDy=0;" edge="1" parent="1" source="K4QezGN7zCRzWAzwF-Ke-36" target="K4QezGN7zCRzWAzwF-Ke-39">
          <mxGeometry relative="1" as="geometry" />
        </mxCell>
        <mxCell id="K4QezGN7zCRzWAzwF-Ke-44" value="1. Embed IFrame" style="text;html=1;align=center;verticalAlign=middle;whiteSpace=wrap;rounded=1;fillColor=#647687;fontColor=#ffffff;strokeColor=none;" vertex="1" parent="1">
          <mxGeometry x="4310" y="1780" width="120" height="40" as="geometry" />
        </mxCell>
        <mxCell id="K4QezGN7zCRzWAzwF-Ke-49" style="edgeStyle=orthogonalEdgeStyle;rounded=0;orthogonalLoop=1;jettySize=auto;html=1;entryX=0;entryY=0.75;entryDx=0;entryDy=0;exitX=1;exitY=0.75;exitDx=0;exitDy=0;startArrow=classic;startFill=1;endArrow=none;dashed=1;dashPattern=1 1;" edge="1" parent="1" source="K4QezGN7zCRzWAzwF-Ke-36" target="K4QezGN7zCRzWAzwF-Ke-39">
          <mxGeometry relative="1" as="geometry" />
        </mxCell>
        <mxCell id="K4QezGN7zCRzWAzwF-Ke-50" value="2.&lt;b&gt; LOADED&lt;/b&gt;" style="text;html=1;align=center;verticalAlign=middle;whiteSpace=wrap;rounded=1;fillColor=#647687;fontColor=#ffffff;strokeColor=none;" vertex="1" parent="1">
          <mxGeometry x="4310" y="1840" width="120" height="40" as="geometry" />
        </mxCell>
        <mxCell id="K4QezGN7zCRzWAzwF-Ke-52" style="edgeStyle=orthogonalEdgeStyle;rounded=0;orthogonalLoop=1;jettySize=auto;html=1;entryX=0.114;entryY=1;entryDx=0;entryDy=0;entryPerimeter=0;exitX=0.889;exitY=1.006;exitDx=0;exitDy=0;exitPerimeter=0;dashed=1;dashPattern=1 1;" edge="1" parent="1" source="K4QezGN7zCRzWAzwF-Ke-36" target="K4QezGN7zCRzWAzwF-Ke-39">
          <mxGeometry relative="1" as="geometry">
            <Array as="points">
              <mxPoint x="4121" y="1920" />
              <mxPoint x="4620" y="1920" />
            </Array>
          </mxGeometry>
        </mxCell>
        <mxCell id="K4QezGN7zCRzWAzwF-Ke-53" value="5.&lt;b&gt;INIT_DATA with&amp;nbsp;&lt;/b&gt;&lt;span style=&quot;background-color: transparent; color: light-dark(rgb(255, 255, 255), rgb(18, 18, 18));&quot;&gt;SAML Token&lt;/span&gt;" style="text;html=1;align=center;verticalAlign=middle;whiteSpace=wrap;rounded=1;fillColor=#647687;fontColor=#ffffff;strokeColor=none;" vertex="1" parent="1">
          <mxGeometry x="4310" y="1900" width="120" height="40" as="geometry" />
        </mxCell>
        <mxCell id="K4QezGN7zCRzWAzwF-Ke-55" style="edgeStyle=orthogonalEdgeStyle;rounded=0;orthogonalLoop=1;jettySize=auto;html=1;entryX=0.75;entryY=1;entryDx=0;entryDy=0;exitX=0.25;exitY=1;exitDx=0;exitDy=0;dashed=1;dashPattern=1 1;" edge="1" parent="1" source="K4QezGN7zCRzWAzwF-Ke-39" target="K4QezGN7zCRzWAzwF-Ke-36">
          <mxGeometry relative="1" as="geometry">
            <Array as="points">
              <mxPoint x="4680" y="2000" />
              <mxPoint x="4060" y="2000" />
            </Array>
          </mxGeometry>
        </mxCell>
        <mxCell id="K4QezGN7zCRzWAzwF-Ke-56" value="12. &lt;b&gt;Status Events&lt;br&gt;(LOADED, UPDATED etc)&lt;/b&gt;" style="text;html=1;align=center;verticalAlign=middle;whiteSpace=wrap;rounded=1;fillColor=#647687;fontColor=#ffffff;strokeColor=none;" vertex="1" parent="1">
          <mxGeometry x="4310" y="1970" width="120" height="60" as="geometry" />
        </mxCell>
      </root>
    </mxGraphModel>
  </diagram>
</mxfile>
